<?xml version="1.0" encoding="utf-8"?>
<!-- Generator: Adobe Illustrator 26.0.1, SVG Export Plug-In . SVG Version: 6.00 Build 0)  -->
<svg version="1.1" id="Layer_1" xmlns="http://www.w3.org/2000/svg" xmlns:xlink="http://www.w3.org/1999/xlink" x="0px" y="0px"
	 viewBox="0 0 100 100" style="enable-background:new 0 0 100 100;" xml:space="preserve">
<style type="text/css">
	.st0{fill:#FFFFA0;}
	.st1{fill:#F9F294;}
	.st2{fill:none;stroke:#17154C;stroke-width:4;stroke-linecap:round;stroke-linejoin:round;}
	.st3{fill:none;stroke:#17154C;stroke-width:3;stroke-miterlimit:10;}
	.st4{clip-path:url(#SVGID_00000183963682327320218570000011053596668266417087_);}
	
		.st5{clip-path:url(#SVGID_00000112590650017617850000000008396761731444809913_);fill:#F9F294;stroke:#17154C;stroke-width:6;stroke-miterlimit:10;}
	.st6{clip-path:url(#SVGID_00000139989580480904800010000002245284831633440658_);}
	.st7{clip-path:url(#SVGID_00000171698508868234983490000017298257219137520530_);fill:#17154C;}
	.st8{clip-path:url(#SVGID_00000001652813252134243000000014404639956847337874_);}
	
		.st9{clip-path:url(#SVGID_00000150073733357240720170000000771951945436470452_);fill:#F9F294;stroke:#17154C;stroke-width:6;stroke-miterlimit:10;}
	.st10{clip-path:url(#SVGID_00000159454285424840787190000006032745721622247041_);}
	.st11{clip-path:url(#SVGID_00000145766345472065813300000015491353684014711708_);fill:#17154C;}
	.st12{clip-path:url(#SVGID_00000096026987852360328610000001578307456272935820_);}
	
		.st13{clip-path:url(#SVGID_00000073716390569957402210000004390221499774715793_);fill:#F9F294;stroke:#17154C;stroke-width:6;stroke-miterlimit:10;}
	.st14{clip-path:url(#SVGID_00000102530449136041992440000015979277563309736122_);}
	.st15{clip-path:url(#SVGID_00000116197198347833387850000010522474500630749355_);fill:#17154C;}
	.st16{clip-path:url(#SVGID_00000035492609432920845690000001227200332419235510_);}
	
		.st17{clip-path:url(#SVGID_00000113354611373715375930000005535429460400937860_);fill:#F9F294;stroke:#17154C;stroke-width:6;stroke-miterlimit:10;}
	.st18{clip-path:url(#SVGID_00000170239735938565451380000010029243466424901786_);}
	.st19{clip-path:url(#SVGID_00000070097930306041977760000013931776369250561434_);fill:#17154C;}
	.st20{clip-path:url(#SVGID_00000082329625070048984160000014372986504789130425_);}
	
		.st21{clip-path:url(#SVGID_00000060718338786644318690000008013056335233787031_);fill:#F9F294;stroke:#17154C;stroke-width:6;stroke-miterlimit:10;}
	.st22{clip-path:url(#SVGID_00000181789462076954915850000003802180217096695990_);}
	.st23{clip-path:url(#SVGID_00000000193209242838586350000016805174996352763522_);fill:#17154C;}
	.st24{fill:none;stroke:#000050;stroke-width:4;stroke-linecap:round;stroke-linejoin:round;}
	.st25{fill:none;stroke:#17154C;stroke-width:7.6781;stroke-linecap:round;stroke-linejoin:round;}
	.st26{fill:#17154C;stroke:#000050;stroke-miterlimit:10;}
	.st27{fill:#231F20;}
	.st28{fill:none;stroke:#000000;stroke-width:1.5;stroke-linecap:round;stroke-linejoin:round;}
	.st29{fill:none;stroke:#000000;stroke-width:4;stroke-linecap:round;stroke-linejoin:round;}
	.st30{fill:#17154C;}
	.st31{fill:#17154D;}
	.st32{fill:#000050;}
	.st33{fill:none;stroke:#17154D;stroke-miterlimit:10;}
</style>
<circle class="st0" cx="50.4" cy="50" r="44.3"/>
<path class="st31" d="M19.1,58c-0.9,0-1.8-0.6-2.1-1.6L5,16.2c-0.4-1.2,0.3-2.4,1.5-2.7c1.2-0.4,2.4,0.3,2.7,1.5l12,40.2
	c0.4,1.2-0.3,2.4-1.5,2.7C19.6,58,19.4,58,19.1,58z"/>
<g>
	<circle class="st32" cx="20.2" cy="70.1" r="2.4"/>
</g>
<line class="st28" x1="28.5" y1="69.9" x2="72.3" y2="69.9"/>
<path class="st31" d="M72.3,72.1H28.5c-1.2,0-2.2-1-2.2-2.2s1-2.2,2.2-2.2h43.8c1.2,0,2.2,1,2.2,2.2S73.5,72.1,72.3,72.1z"/>
<g id="Internet-Networks-Servers__x2F__Wifi__x2F__wifi-settings_00000098212217885943341240000017377954617349897614_">
	<g id="Group_48_00000112590433169860844650000008294961708377607608_">
		<g id="wifi-settings_00000110446713740150243740000013244429911561451705_">
			<path id="Oval_30_00000005266066536362648210000015657503119005111961_" class="st24" d="M68.4,51c2,0,3.6-1.6,3.6-3.6
				s-1.6-3.6-3.6-3.6c-2,0-3.6,1.6-3.6,3.6S66.4,51,68.4,51z"/>
			<path id="Shape_321_00000100347541520326471200000000616482612641683385_" class="st24" d="M71.5,33.5l1.1,3.5
				c0.4,1.2,1.6,1.9,2.8,1.6l3.5-0.8c1.4-0.3,2.8,0.3,3.5,1.5c0.7,1.2,0.5,2.7-0.4,3.8l-2.5,2.7c-0.9,0.9-0.9,2.3,0,3.3l2.5,2.7
				c1,1,1.1,2.6,0.4,3.8c-0.7,1.2-2.1,1.8-3.5,1.5l-3.5-0.8c-1.2-0.3-2.4,0.4-2.8,1.6l-1.1,3.5c-0.4,1.3-1.6,2.3-3,2.3
				c-1.4,0-2.6-0.9-3-2.3l-1.1-3.5c-0.4-1.2-1.6-1.9-2.8-1.6L58,57c-1.4,0.3-2.8-0.3-3.5-1.5c-0.7-1.2-0.5-2.8,0.4-3.8l2.5-2.7
				c0.9-0.9,0.9-2.3,0-3.3l-2.5-2.7c-1-1-1.1-2.6-0.4-3.8c0.7-1.2,2.1-1.8,3.5-1.5l3.5,0.8c1.2,0.3,2.4-0.4,2.8-1.6l1.1-3.5
				c0.4-1.3,1.6-2.3,3.1-2.3C69.8,31.2,71.1,32.2,71.5,33.5z"/>
		</g>
	</g>
</g>
<path class="st24" d="M28.5,34.9c8.4-8.4,20.5-11.1,31.2-8"/>
<path class="st24" d="M34.6,41c4.4-4.4,10-6.6,15.7-6.7"/>
<path class="st24" d="M22.4,28.8c15.7-15.7,41.2-15.7,57,0"/>
<line class="st24" x1="93.7" y1="15.4" x2="88.4" y2="33.2"/>
<path class="st24" d="M89.2,57.7c3.2,1.3,5.5,4.4,5.5,8.1v8.7c0,4.8-3.9,8.8-8.8,8.8H14.8c-4.8,0-8.8-3.9-8.8-8.8v-8.7
	c0-4.8,3.9-8.8,8.8-8.8h32.3"/>
</svg>
