<?xml version="1.0" encoding="utf-8"?>
<!-- Generator: Adobe Illustrator 24.0.1, SVG Export Plug-In . SVG Version: 6.00 Build 0)  -->
<svg version="1.1" id="Layer_1" xmlns="http://www.w3.org/2000/svg" xmlns:xlink="http://www.w3.org/1999/xlink" x="0px" y="0px"
	 viewBox="0 0 100 100" style="enable-background:new 0 0 100 100;" xml:space="preserve">
<style type="text/css">
	.st0{fill:#FFFFA0;}
	.st1{fill:none;stroke:#17154D;stroke-width:1.5;stroke-linecap:round;stroke-linejoin:round;}
	.st2{fill:#F9F294;}
	.st3{fill:none;stroke:#17154C;stroke-width:4;stroke-linecap:round;stroke-linejoin:round;}
	.st4{fill:none;stroke:#17154C;stroke-width:3;stroke-miterlimit:10;}
	.st5{clip-path:url(#SVGID_2_);}
	.st6{clip-path:url(#SVGID_4_);fill:#F9F294;stroke:#17154C;stroke-width:6;stroke-miterlimit:10;}
	.st7{clip-path:url(#SVGID_6_);}
	.st8{clip-path:url(#SVGID_8_);fill:#17154C;}
	.st9{clip-path:url(#SVGID_10_);}
	.st10{clip-path:url(#SVGID_12_);fill:#F9F294;stroke:#17154C;stroke-width:6;stroke-miterlimit:10;}
	.st11{clip-path:url(#SVGID_14_);}
	.st12{clip-path:url(#SVGID_16_);fill:#17154C;}
	.st13{clip-path:url(#SVGID_18_);}
	.st14{clip-path:url(#SVGID_20_);fill:#F9F294;stroke:#17154C;stroke-width:6;stroke-miterlimit:10;}
	.st15{clip-path:url(#SVGID_22_);}
	.st16{clip-path:url(#SVGID_24_);fill:#17154C;}
	.st17{clip-path:url(#SVGID_26_);}
	.st18{clip-path:url(#SVGID_28_);fill:#F9F294;stroke:#17154C;stroke-width:6;stroke-miterlimit:10;}
	.st19{clip-path:url(#SVGID_30_);}
	.st20{clip-path:url(#SVGID_32_);fill:#17154C;}
	.st21{clip-path:url(#SVGID_34_);}
	.st22{clip-path:url(#SVGID_36_);fill:#F9F294;stroke:#17154C;stroke-width:6;stroke-miterlimit:10;}
	.st23{clip-path:url(#SVGID_38_);}
	.st24{clip-path:url(#SVGID_40_);fill:#17154C;}
	.st25{fill:none;stroke:#17154C;stroke-width:7.6781;stroke-linecap:round;stroke-linejoin:round;}
	.st26{fill:#17154C;}
	.st27{fill:#231F20;}
	.st28{fill:none;stroke:#17154D;stroke-width:4;stroke-linecap:round;stroke-linejoin:round;}
	.st29{fill:none;stroke:#000000;stroke-width:1.5;stroke-linecap:round;stroke-linejoin:round;}
	.st30{fill:none;stroke:#000000;stroke-width:4;stroke-linecap:round;stroke-linejoin:round;}
	.st31{fill:#17154D;}
	.st32{fill:#000050;}
	.st33{fill:none;stroke:#000050;stroke-width:1.5;stroke-linecap:round;stroke-linejoin:round;}
</style>
<circle class="st0" cx="50" cy="50.5" r="43.9"/>
<g id="Interface-Essential__x2F__Help__x2F__question-help-message_5_">
	<g id="Group_203_5_">
		<g id="question-help-message_5_">
			<path class="st31" d="M27.5,92.8c-0.3,0-0.7-0.1-1-0.2c-0.7-0.4-1.2-1.1-1.2-2V77.8h-7.8c-4,0-7.2-3.2-7.2-7.2v-50
				c0-4,3.2-7.2,7.2-7.2h65c4,0,7.2,3.2,7.2,7.2v50c0,4-3.2,7.2-7.2,7.2H48.2L28.8,92.4C28.4,92.7,28,92.8,27.5,92.8z M17.5,17.8
				c-1.5,0-2.8,1.3-2.8,2.8v50c0,1.5,1.3,2.8,2.8,2.8h10c1.2,0,2.2,1,2.2,2.2v10.6l16.5-12.4c0.4-0.3,0.8-0.4,1.3-0.4h35
				c1.5,0,2.8-1.3,2.8-2.8v-50c0-1.5-1.3-2.8-2.8-2.8H17.5z"/>
			<path class="st31" d="M50,52.8c-1.2,0-2.2-1-2.2-2.2v-0.9c0-3,1.9-5.8,4.8-6.8c3.7-1.3,5.9-5.2,5-9.1c-0.9-3.9-4.5-6.5-8.5-6
				c-3.9,0.4-6.9,3.8-6.9,7.7c0,1.2-1,2.2-2.2,2.2s-2.2-1-2.2-2.2c0-6.2,4.7-11.4,10.8-12.1c6.2-0.7,11.9,3.3,13.3,9.4
				c1.4,6.1-2,12.2-7.8,14.2c-1.1,0.4-1.9,1.5-1.9,2.6v0.9C52.2,51.8,51.2,52.8,50,52.8z"/>
			<path class="st31" d="M50,65.3c-1.9,0-3.5-1.6-3.5-3.5c0-1.9,1.5-3.5,3.5-3.5s3.5,1.6,3.5,3.5C53.5,63.8,51.9,65.3,50,65.3z
				 M50,60.9c-0.5,0-1,0.4-1,1c0,0.5,0.4,1,1,1c0.5,0,1-0.4,1-1C51,61.3,50.5,60.9,50,60.9z"/>
		</g>
	</g>
</g>
</svg>
