<svg id="Layer_1" data-name="Layer 1" xmlns="http://www.w3.org/2000/svg" viewBox="0 0 100 100"><defs><style>.cls-1{fill:#ffffa0;}.cls-2{fill:none;stroke:#000050;stroke-linecap:round;stroke-linejoin:round;stroke-width:4px;}</style></defs><circle class="cls-1" cx="50.59" cy="50" r="44.3"/><g id="Programming-Apps-Websites_Apps_app-window-share" data-name="Programming-Apps-Websites / Apps / app-window-share"><g id="Group_224" data-name="Group 224"><g id="app-window-share"><path id="Shape_1168" data-name="Shape 1168" class="cls-2" d="M74.21,23V8.38a3.65,3.65,0,0,0-3.66-3.65H26.71a3.65,3.65,0,0,0-3.65,3.65v84a3.65,3.65,0,0,0,3.65,3.65h17"/><path id="Shape_1169" data-name="Shape 1169" class="cls-2" d="M23.06,15.69H74.21"/><path id="Oval_83" data-name="Oval 83" class="cls-2" d="M65.07,70a5.48,5.48,0,1,0-5.48-5.48A5.48,5.48,0,0,0,65.07,70Z"/><path id="Oval_84" data-name="Oval 84" class="cls-2" d="M83.34,77.33a5.48,5.48,0,1,0-5.48-5.48A5.48,5.48,0,0,0,83.34,77.33Z"/><path id="Oval_85" data-name="Oval 85" class="cls-2" d="M83.34,59.07a5.48,5.48,0,1,0-5.48-5.48A5.48,5.48,0,0,0,83.34,59.07Z"/><path id="Shape_1170" data-name="Shape 1170" class="cls-2" d="M69.76,61.75l8.89-5.34"/><path id="Shape_1171" data-name="Shape 1171" class="cls-2" d="M70.16,66.59l8.09,3.24"/></g></g></g><path id="Oval_85-2" data-name="Oval 85" class="cls-2" d="M65.07,46.21a5.48,5.48,0,1,0-5.48-5.48A5.48,5.48,0,0,0,65.07,46.21Z"/><path id="Oval_84-2" data-name="Oval 84" class="cls-2" d="M46.81,77.33a5.48,5.48,0,1,1,5.48-5.48A5.48,5.48,0,0,1,46.81,77.33Z"/><path id="Oval_85-3" data-name="Oval 85" class="cls-2" d="M46.81,59.07a5.48,5.48,0,1,1,5.48-5.48A5.48,5.48,0,0,1,46.81,59.07Z"/><path id="Shape_1171-2" data-name="Shape 1171" class="cls-2" d="M79.4,49.78l-9.12-6.42"/><path id="Oval_85-4" data-name="Oval 85" class="cls-2" d="M65.07,91.83a5.48,5.48,0,1,0-5.48-5.48A5.48,5.48,0,0,0,65.07,91.83Z"/><line class="cls-2" x1="65.07" y1="46.21" x2="65.07" y2="59.07"/><line class="cls-2" x1="65.07" y1="70.03" x2="65.07" y2="80.87"/><line class="cls-2" x1="37.59" y1="23.45" x2="59.68" y2="23.45"/><path id="Shape_1171-3" data-name="Shape 1171" class="cls-2" d="M50.56,49.42,59.68,43"/><path id="Shape_1171-4" data-name="Shape 1171" class="cls-2" d="M59.93,83.18l-9.12-6.43"/></svg>