<?xml version="1.0" encoding="utf-8"?>
<!-- Generator: Adobe Illustrator 24.0.1, SVG Export Plug-In . SVG Version: 6.00 Build 0)  -->
<svg version="1.1" id="Layer_1" xmlns="http://www.w3.org/2000/svg" xmlns:xlink="http://www.w3.org/1999/xlink" x="0px" y="0px"
	 viewBox="0 0 100 100" style="enable-background:new 0 0 100 100;" xml:space="preserve">
<style type="text/css">
	.st0{fill:#FFFFA0;}
	.st1{fill:none;stroke:#17154D;stroke-width:1.5;stroke-linecap:round;stroke-linejoin:round;}
	.st2{fill:#F9F294;}
	.st3{fill:none;stroke:#17154C;stroke-width:4;stroke-linecap:round;stroke-linejoin:round;}
	.st4{fill:none;stroke:#17154C;stroke-width:3;stroke-miterlimit:10;}
	.st5{clip-path:url(#SVGID_2_);}
	.st6{clip-path:url(#SVGID_4_);fill:#F9F294;stroke:#17154C;stroke-width:6;stroke-miterlimit:10;}
	.st7{clip-path:url(#SVGID_6_);}
	.st8{clip-path:url(#SVGID_8_);fill:#17154C;}
	.st9{clip-path:url(#SVGID_10_);}
	.st10{clip-path:url(#SVGID_12_);fill:#F9F294;stroke:#17154C;stroke-width:6;stroke-miterlimit:10;}
	.st11{clip-path:url(#SVGID_14_);}
	.st12{clip-path:url(#SVGID_16_);fill:#17154C;}
	.st13{clip-path:url(#SVGID_18_);}
	.st14{clip-path:url(#SVGID_20_);fill:#F9F294;stroke:#17154C;stroke-width:6;stroke-miterlimit:10;}
	.st15{clip-path:url(#SVGID_22_);}
	.st16{clip-path:url(#SVGID_24_);fill:#17154C;}
	.st17{clip-path:url(#SVGID_26_);}
	.st18{clip-path:url(#SVGID_28_);fill:#F9F294;stroke:#17154C;stroke-width:6;stroke-miterlimit:10;}
	.st19{clip-path:url(#SVGID_30_);}
	.st20{clip-path:url(#SVGID_32_);fill:#17154C;}
	.st21{clip-path:url(#SVGID_34_);}
	.st22{clip-path:url(#SVGID_36_);fill:#F9F294;stroke:#17154C;stroke-width:6;stroke-miterlimit:10;}
	.st23{clip-path:url(#SVGID_38_);}
	.st24{clip-path:url(#SVGID_40_);fill:#17154C;}
	.st25{fill:none;stroke:#17154C;stroke-width:7.6781;stroke-linecap:round;stroke-linejoin:round;}
	.st26{fill:#17154C;}
	.st27{fill:#231F20;}
	.st28{fill:none;stroke:#17154D;stroke-width:4;stroke-linecap:round;stroke-linejoin:round;}
	.st29{fill:none;stroke:#000000;stroke-width:1.5;stroke-linecap:round;stroke-linejoin:round;}
	.st30{fill:none;stroke:#000000;stroke-width:4;stroke-linecap:round;stroke-linejoin:round;}
	.st31{fill:#17154D;}
	.st32{fill:#000050;}
	.st33{fill:none;stroke:#000050;stroke-width:1.5;stroke-linecap:round;stroke-linejoin:round;}
</style>
<g>
	<g>
		<g>
			<defs>
				
					<ellipse id="SVGID_1_" transform="matrix(0.7071 -0.7071 0.7071 0.7071 -67.5936 -503.6371)" cx="-641.7" cy="-170.2" rx="24.6" ry="24.7"/>
			</defs>
			<use xlink:href="#SVGID_1_"  style="overflow:visible;fill-rule:evenodd;clip-rule:evenodd;fill:#EAE291;"/>
			<clipPath id="SVGID_2_">
				<use xlink:href="#SVGID_1_"  style="overflow:visible;"/>
			</clipPath>
			<g class="st5">
				<defs>
					
						<rect id="SVGID_3_" x="-803.9" y="-453.3" transform="matrix(0.7071 -0.7071 0.7071 0.7071 -139.2835 -366.1412)" width="584.5" height="876.7"/>
				</defs>
				<use xlink:href="#SVGID_3_"  style="overflow:visible;fill:#EAE291;"/>
				<clipPath id="SVGID_4_">
					<use xlink:href="#SVGID_3_"  style="overflow:visible;"/>
				</clipPath>
				<use xlink:href="#SVGID_3_"  style="overflow:visible;fill:none;stroke:#17154C;stroke-width:6;stroke-miterlimit:10;"/>
			</g>
			
				<use xlink:href="#SVGID_1_"  style="overflow:visible;fill-rule:evenodd;clip-rule:evenodd;fill:none;stroke:#17154C;stroke-width:4;stroke-miterlimit:10;"/>
		</g>
		<g>
			<defs>
				<path id="SVGID_5_" d="M-632.3-173.8c-0.2-0.2-0.4-0.4-0.5-0.6c-1.4-1.4-3.4-2.3-5.8-2.4c-1.1-0.1-2.3,0-3.5,0.2
					c2.6-2.7,5.3-5.8,7.9-8.9l-3.7-3.7c-7.4,8.9-14.6,16-21,22.1l0,0c0,0,0,0,0,0l3.7,3.7c6.4-6.1,12-8.6,16.4-8.3
					c1.2,0.1,2.1,0.4,2.6,1.1c2.6,3.2-6.7,11.6-10.9,15.3l3.7,3.7c3.1-2.7,6.8-6.1,9.4-9.6C-630.2-166.3-629.6-170.5-632.3-173.8"/>
			</defs>
			<clipPath id="SVGID_6_">
				<use xlink:href="#SVGID_5_"  style="overflow:visible;"/>
			</clipPath>
			<g class="st7">
				<defs>
					
						<rect id="SVGID_7_" x="-803.9" y="-453.3" transform="matrix(0.7071 -0.7071 0.7071 0.7071 -139.2835 -366.1412)" width="584.5" height="876.7"/>
				</defs>
				<clipPath id="SVGID_8_">
					<use xlink:href="#SVGID_7_"  style="overflow:visible;"/>
				</clipPath>
			</g>
		</g>
	</g>
	<g>
		<g>
			<g>
				<defs>
					<ellipse id="SVGID_9_" cx="-642.2" cy="-72.7" rx="24.7" ry="24.6"/>
				</defs>
				<use xlink:href="#SVGID_9_"  style="overflow:visible;fill-rule:evenodd;clip-rule:evenodd;fill:#EAE291;"/>
				<clipPath id="SVGID_10_">
					<use xlink:href="#SVGID_9_"  style="overflow:visible;"/>
				</clipPath>
				<g class="st9">
					<defs>
						<rect id="SVGID_11_" x="-878.7" y="-347.2" width="876.7" height="584.5"/>
					</defs>
					<use xlink:href="#SVGID_11_"  style="overflow:visible;fill:#EAE291;"/>
					<clipPath id="SVGID_12_">
						<use xlink:href="#SVGID_11_"  style="overflow:visible;"/>
					</clipPath>
					<use xlink:href="#SVGID_11_"  style="overflow:visible;fill:none;stroke:#17154C;stroke-width:6;stroke-miterlimit:10;"/>
				</g>
				
					<use xlink:href="#SVGID_9_"  style="overflow:visible;fill-rule:evenodd;clip-rule:evenodd;fill:none;stroke:#17154C;stroke-width:4;stroke-miterlimit:10;"/>
			</g>
		</g>
		<g>
			<g>
				<defs>
					<ellipse id="SVGID_17_" cx="-642.2" cy="-80" rx="24.7" ry="24.6"/>
				</defs>
				<use xlink:href="#SVGID_17_"  style="overflow:visible;fill-rule:evenodd;clip-rule:evenodd;fill:#EAE291;"/>
				<clipPath id="SVGID_14_">
					<use xlink:href="#SVGID_17_"  style="overflow:visible;"/>
				</clipPath>
				<g class="st11">
					<defs>
						<rect id="SVGID_19_" x="-878.7" y="-354.5" width="876.7" height="584.5"/>
					</defs>
					<use xlink:href="#SVGID_19_"  style="overflow:visible;fill:#EAE291;"/>
					<clipPath id="SVGID_16_">
						<use xlink:href="#SVGID_19_"  style="overflow:visible;"/>
					</clipPath>
					<use xlink:href="#SVGID_19_"  style="overflow:visible;fill:none;stroke:#17154C;stroke-width:6;stroke-miterlimit:10;"/>
				</g>
				
					<use xlink:href="#SVGID_17_"  style="overflow:visible;fill-rule:evenodd;clip-rule:evenodd;fill:none;stroke:#17154C;stroke-width:4;stroke-miterlimit:10;"/>
			</g>
		</g>
		<g>
			<g>
				<defs>
					<ellipse id="SVGID_25_" cx="-642.2" cy="-87.3" rx="24.7" ry="24.6"/>
				</defs>
				<use xlink:href="#SVGID_25_"  style="overflow:visible;fill-rule:evenodd;clip-rule:evenodd;fill:#EAE291;"/>
				<clipPath id="SVGID_18_">
					<use xlink:href="#SVGID_25_"  style="overflow:visible;"/>
				</clipPath>
				<g class="st13">
					<defs>
						<rect id="SVGID_27_" x="-878.7" y="-361.8" width="876.7" height="584.5"/>
					</defs>
					<use xlink:href="#SVGID_27_"  style="overflow:visible;fill:#EAE291;"/>
					<clipPath id="SVGID_20_">
						<use xlink:href="#SVGID_27_"  style="overflow:visible;"/>
					</clipPath>
					<use xlink:href="#SVGID_27_"  style="overflow:visible;fill:none;stroke:#17154C;stroke-width:6;stroke-miterlimit:10;"/>
				</g>
				
					<use xlink:href="#SVGID_25_"  style="overflow:visible;fill-rule:evenodd;clip-rule:evenodd;fill:none;stroke:#17154C;stroke-width:4;stroke-miterlimit:10;"/>
			</g>
		</g>
		<g>
			<g>
				<defs>
					<ellipse id="SVGID_33_" cx="-642.2" cy="-95.4" rx="24.7" ry="24.6"/>
				</defs>
				<use xlink:href="#SVGID_33_"  style="overflow:visible;fill-rule:evenodd;clip-rule:evenodd;fill:#EAE291;"/>
				<clipPath id="SVGID_22_">
					<use xlink:href="#SVGID_33_"  style="overflow:visible;"/>
				</clipPath>
				<g class="st15">
					<defs>
						<rect id="SVGID_35_" x="-878.7" y="-369.8" width="876.7" height="584.5"/>
					</defs>
					<use xlink:href="#SVGID_35_"  style="overflow:visible;fill:#EAE291;"/>
					<clipPath id="SVGID_24_">
						<use xlink:href="#SVGID_35_"  style="overflow:visible;"/>
					</clipPath>
					<use xlink:href="#SVGID_35_"  style="overflow:visible;fill:none;stroke:#17154C;stroke-width:6;stroke-miterlimit:10;"/>
				</g>
				
					<use xlink:href="#SVGID_33_"  style="overflow:visible;fill-rule:evenodd;clip-rule:evenodd;fill:none;stroke:#17154C;stroke-width:4;stroke-miterlimit:10;"/>
			</g>
		</g>
	</g>
</g>
<circle class="st0" cx="50" cy="50" r="44.3"/>
<g id="Interface-Essential__x2F__Setting__x2F__cog-double-2_5_">
	<g id="Group_144_5_">
		<g id="cog-double-2_5_">
			<path class="st31" d="M45.9,92.9c-1.9,0-3.8-0.8-5.1-2.3l-2.2-2.5c-0.9-1-2.7-1-3.6,0l-2.2,2.5c-1.9,2.2-5,2.8-7.7,1.7
				c-2.7-1.1-4.4-3.8-4.2-6.7l0.2-3.3c0-0.7-0.2-1.4-0.7-1.9c-0.5-0.5-1.2-0.8-1.9-0.7L15,80c-2.9,0.2-5.6-1.6-6.7-4.2
				c-1.1-2.7-0.4-5.8,1.7-7.7l2.5-2.2c0.5-0.5,0.8-1.1,0.8-1.8c0-0.7-0.3-1.4-0.8-1.8L10.1,60c-2.1-1.9-2.8-5-1.7-7.7
				c1.1-2.7,3.8-4.3,6.7-4.2l3.3,0.2c0.7,0,1.4-0.2,1.9-0.7s0.7-1.2,0.7-1.9l-0.2-3.3c-0.1-2.9,1.6-5.6,4.2-6.7
				c2.7-1.1,5.8-0.4,7.7,1.7l2.2,2.5c0.9,1,2.7,1,3.6,0l2.2-2.5c1.9-2.2,5-2.8,7.7-1.7c2.7,1.1,4.4,3.8,4.2,6.7l-0.2,3.3
				c0,0.7,0.2,1.4,0.7,1.9c0.5,0.5,1.2,0.7,1.9,0.7l3.3-0.2c2.8-0.2,5.6,1.6,6.7,4.2c1.1,2.7,0.4,5.8-1.7,7.7l-2.5,2.2
				c-0.5,0.5-0.8,1.1-0.8,1.8c0,0.7,0.3,1.4,0.8,1.8l2.5,2.2c2.2,1.9,2.9,5,1.7,7.7c-1.1,2.7-3.8,4.4-6.7,4.2l-3.3-0.2
				c-0.7,0-1.4,0.2-1.9,0.7c-0.5,0.5-0.8,1.2-0.7,1.9l0.2,3.3c0.1,2.9-1.6,5.6-4.2,6.7C47.7,92.8,46.8,92.9,45.9,92.9z M36.7,83
				c1.9,0,3.8,0.8,5.1,2.3l2.2,2.5c0.7,0.8,1.8,1,2.7,0.6c1-0.4,1.6-1.4,1.5-2.4l-0.2-3.3c-0.1-1.9,0.6-3.8,2-5.2
				c1.4-1.4,3.3-2.1,5.2-2l3.3,0.2c1,0.1,2-0.6,2.4-1.5c0.4-1,0.1-2.1-0.6-2.8L58,69.1c-1.4-1.3-2.3-3.2-2.3-5.1
				c0-1.9,0.8-3.8,2.3-5.1l2.5-2.2c0.8-0.7,1-1.8,0.6-2.8c-0.4-1-1.3-1.6-2.4-1.5l-3.3,0.2c-1.9,0.1-3.8-0.6-5.2-2
				c-1.4-1.4-2.1-3.3-2-5.2l0.2-3.3c0.1-1-0.6-2-1.5-2.4c-1-0.4-2.1-0.1-2.8,0.6l-2.2,2.5c-2.6,2.9-7.6,2.9-10.2,0c0,0,0,0,0,0
				l-2.2-2.5c-0.7-0.8-1.8-1-2.7-0.6c-1,0.4-1.6,1.4-1.5,2.4l0.2,3.3c0.1,1.9-0.6,3.8-2,5.2c-1.4,1.4-3.2,2.1-5.2,2l-3.3-0.2
				c-1-0.1-2,0.6-2.4,1.5c-0.4,1-0.1,2.1,0.6,2.8l2.5,2.2c1.4,1.3,2.3,3.2,2.3,5.1c0,1.9-0.8,3.8-2.3,5.1L13,71.3
				c-0.8,0.7-1,1.8-0.6,2.8c0.4,1,1.3,1.6,2.4,1.5l3.3-0.2c1.9-0.1,3.8,0.6,5.2,2c1.4,1.4,2.1,3.3,2,5.2l-0.2,3.3
				c-0.1,1,0.6,2,1.5,2.4c1,0.4,2.1,0.1,2.8-0.6l2.2-2.5C33,83.8,34.8,83,36.7,83z"/>
			<path class="st31" d="M36.7,72.9c-4.9,0-8.9-4-8.9-8.9c0-4.9,4-8.9,8.9-8.9c4.9,0,8.9,4,8.9,8.9C45.6,68.9,41.6,72.9,36.7,72.9z
				 M36.7,59.6c-2.5,0-4.5,2-4.5,4.5c0,2.5,2,4.5,4.5,4.5c2.5,0,4.5-2,4.5-4.5C41.2,61.6,39.2,59.6,36.7,59.6z"/>
			<path class="st31" d="M73.7,30.6c-2,0-3.5-1.6-3.5-3.5s1.6-3.5,3.5-3.5s3.5,1.6,3.5,3.5S75.7,30.6,73.7,30.6z M73.7,26.2
				c-0.5,0-0.9,0.4-0.9,0.9c0,0.5,0.4,0.9,0.9,0.9s0.9-0.4,0.9-0.9C74.6,26.6,74.2,26.2,73.7,26.2z"/>
			<path class="st31" d="M77.4,45.7c-1.5,0-2.9-0.7-3.8-1.8L70.5,40c-0.1-0.2-0.3-0.2-0.5-0.1l-4.6,1.8c-1.8,0.7-3.8,0.3-5.2-1.1
				c-1.4-1.4-1.8-3.4-1.1-5.2l1.8-4.6c0.1-0.2,0-0.4-0.1-0.5l-3.8-3.1c-1.5-1.2-2.2-3.2-1.7-5.1c0.5-1.9,2.1-3.3,4-3.6l4.9-0.8
				c0.2,0,0.4-0.2,0.4-0.4l0.8-4.9c0.3-1.9,1.7-3.5,3.6-4c1.9-0.5,3.9,0.2,5.1,1.7l3.1,3.8c0.1,0.2,0.3,0.2,0.5,0.1l4.6-1.8
				c0,0,0,0,0,0c1.8-0.7,3.8-0.3,5.2,1.1c1.4,1.4,1.8,3.4,1.1,5.2l-1.8,4.6c-0.1,0.2,0,0.4,0.1,0.5l3.8,3.1c1.5,1.2,2.2,3.2,1.7,5.1
				c-0.5,1.9-2.1,3.3-4,3.6l-4.9,0.7c-0.2,0-0.4,0.2-0.4,0.4l-0.8,4.9c-0.3,1.9-1.7,3.5-3.6,4C78.3,45.6,77.8,45.7,77.4,45.7z
				 M70.2,35.4c1.4,0,2.8,0.6,3.8,1.8l3.1,3.8c0.1,0.1,0.3,0.2,0.5,0.2c0.2,0,0.3-0.2,0.3-0.4l0.8-4.9c0.3-2.1,2-3.7,4.1-4.1
				l4.9-0.7c0.2,0,0.3-0.2,0.4-0.3c0-0.2,0-0.4-0.2-0.5L84,27.3c-1.7-1.3-2.3-3.6-1.5-5.6l1.8-4.6c0.1-0.2,0-0.4-0.1-0.5
				c-0.1-0.1-0.3-0.2-0.5-0.1l-4.6,1.8c-2,0.8-4.2,0.2-5.6-1.5L70.4,13c-0.1-0.1-0.3-0.2-0.5-0.2c-0.2,0-0.3,0.2-0.3,0.4l-0.8,4.9
				c-0.3,2.1-2,3.7-4.1,4.1l-4.9,0.8c-0.2,0-0.3,0.2-0.4,0.3c0,0.2,0,0.4,0.2,0.5l3.8,3.1c1.7,1.3,2.3,3.6,1.5,5.6l-1.8,4.6
				c-0.1,0.2,0,0.4,0.1,0.5c0.1,0.1,0.3,0.2,0.5,0.1l4.6-1.8C69,35.5,69.6,35.4,70.2,35.4z"/>
		</g>
	</g>
</g>
</svg>
