<?xml version="1.0" encoding="utf-8"?>
<!-- Generator: Adobe Illustrator 24.0.1, SVG Export Plug-In . SVG Version: 6.00 Build 0)  -->
<svg version="1.1" id="Layer_1" xmlns="http://www.w3.org/2000/svg" xmlns:xlink="http://www.w3.org/1999/xlink" x="0px" y="0px"
	 viewBox="0 0 100 100" style="enable-background:new 0 0 100 100;" xml:space="preserve">
<style type="text/css">
	.st0{fill:#FFFFA0;}
	.st1{fill:none;stroke:#17154D;stroke-width:1.5;stroke-linecap:round;stroke-linejoin:round;}
	.st2{fill:#F9F294;}
	.st3{fill:none;stroke:#17154C;stroke-width:4;stroke-linecap:round;stroke-linejoin:round;}
	.st4{fill:none;stroke:#17154C;stroke-width:3;stroke-miterlimit:10;}
	.st5{clip-path:url(#SVGID_2_);}
	.st6{clip-path:url(#SVGID_4_);fill:#F9F294;stroke:#17154C;stroke-width:6;stroke-miterlimit:10;}
	.st7{clip-path:url(#SVGID_6_);}
	.st8{clip-path:url(#SVGID_8_);fill:#17154C;}
	.st9{clip-path:url(#SVGID_10_);}
	.st10{clip-path:url(#SVGID_12_);fill:#F9F294;stroke:#17154C;stroke-width:6;stroke-miterlimit:10;}
	.st11{clip-path:url(#SVGID_14_);}
	.st12{clip-path:url(#SVGID_16_);fill:#17154C;}
	.st13{clip-path:url(#SVGID_18_);}
	.st14{clip-path:url(#SVGID_20_);fill:#F9F294;stroke:#17154C;stroke-width:6;stroke-miterlimit:10;}
	.st15{clip-path:url(#SVGID_22_);}
	.st16{clip-path:url(#SVGID_24_);fill:#17154C;}
	.st17{clip-path:url(#SVGID_26_);}
	.st18{clip-path:url(#SVGID_28_);fill:#F9F294;stroke:#17154C;stroke-width:6;stroke-miterlimit:10;}
	.st19{clip-path:url(#SVGID_30_);}
	.st20{clip-path:url(#SVGID_32_);fill:#17154C;}
	.st21{clip-path:url(#SVGID_34_);}
	.st22{clip-path:url(#SVGID_36_);fill:#F9F294;stroke:#17154C;stroke-width:6;stroke-miterlimit:10;}
	.st23{clip-path:url(#SVGID_38_);}
	.st24{clip-path:url(#SVGID_40_);fill:#17154C;}
	.st25{fill:none;stroke:#17154C;stroke-width:7.6781;stroke-linecap:round;stroke-linejoin:round;}
	.st26{fill:#17154C;}
	.st27{fill:#231F20;}
	.st28{fill:none;stroke:#17154D;stroke-width:4;stroke-linecap:round;stroke-linejoin:round;}
	.st29{fill:none;stroke:#000000;stroke-width:1.5;stroke-linecap:round;stroke-linejoin:round;}
	.st30{fill:none;stroke:#000000;stroke-width:4;stroke-linecap:round;stroke-linejoin:round;}
	.st31{fill:#17154D;}
	.st32{fill:#000050;}
	.st33{fill:none;stroke:#000050;stroke-width:1.5;stroke-linecap:round;stroke-linejoin:round;}
</style>
<circle class="st0" cx="50" cy="50" r="44.3"/>
<path class="st31" d="M85.5,85.4H14.5c-6.1,0-11.1-5-11.1-11.1v-8.4c0-6.1,5-11.1,11.1-11.1h70.9c6.1,0,11.1,5,11.1,11.1v8.4
	C96.5,80.4,91.6,85.4,85.5,85.4z M14.5,59.2c-3.7,0-6.7,3-6.7,6.7v8.4c0,3.7,3,6.7,6.7,6.7h70.9c3.7,0,6.7-3,6.7-6.7v-8.4
	c0-3.7-3-6.7-6.7-6.7H14.5z"/>
<path class="st31" d="M18.7,58c-0.9,0-1.8-0.6-2.1-1.6l-12-40.2c-0.4-1.2,0.3-2.4,1.5-2.7c1.2-0.4,2.4,0.3,2.7,1.5l12,40.2
	c0.4,1.2-0.3,2.4-1.5,2.7C19.2,58,19,58,18.7,58z"/>
<path class="st31" d="M81.3,58c-0.2,0-0.4,0-0.6-0.1c-1.2-0.4-1.8-1.6-1.5-2.7l12-40.2c0.4-1.2,1.6-1.8,2.7-1.5
	c1.2,0.4,1.8,1.6,1.5,2.7l-12,40.2C83.1,57.4,82.2,58,81.3,58z"/>
<g>
	<circle class="st32" cx="19.8" cy="70.1" r="2.4"/>
</g>
<line class="st29" x1="28.1" y1="69.9" x2="71.9" y2="69.9"/>
<path class="st31" d="M71.9,72.1H28.1c-1.2,0-2.2-1-2.2-2.2s1-2.2,2.2-2.2h43.8c1.2,0,2.2,1,2.2,2.2S73.1,72.1,71.9,72.1z"/>
<path class="st31" d="M73.3,37.6c-0.6,0-1.1-0.2-1.6-0.6c-11.8-11.8-31-11.8-42.8,0c-0.9,0.9-2.3,0.9-3.1,0c-0.9-0.9-0.9-2.3,0-3.1
	c13.5-13.5,35.5-13.5,49.1,0c0.9,0.9,0.9,2.3,0,3.1C74.4,37.4,73.8,37.6,73.3,37.6z"/>
<path class="st31" d="M67,43.9c-0.6,0-1.1-0.2-1.6-0.6c-4-4-9.4-6.3-15.1-6.3c-5.7,0-11.1,2.2-15.1,6.3c-0.9,0.9-2.3,0.9-3.1,0
	c-0.9-0.9-0.9-2.3,0-3.1c4.9-4.9,11.4-7.6,18.3-7.6c6.9,0,13.4,2.7,18.3,7.6c0.9,0.9,0.9,2.3,0,3.1C68.1,43.6,67.6,43.9,67,43.9z"/>
<path class="st31" d="M21.1,31.3c-0.6,0-1.1-0.2-1.6-0.6c-0.9-0.9-0.9-2.3,0-3.1c17-17,44.6-17,61.6,0c0.9,0.9,0.9,2.3,0,3.1
	s-2.3,0.9-3.1,0c-15.3-15.3-40.1-15.3-55.3,0C22.2,31.1,21.6,31.3,21.1,31.3z"/>
</svg>
