<?xml version="1.0" encoding="utf-8"?>
<!-- Generator: Adobe Illustrator 24.0.1, SVG Export Plug-In . SVG Version: 6.00 Build 0)  -->
<svg version="1.1" id="Layer_1" xmlns="http://www.w3.org/2000/svg" xmlns:xlink="http://www.w3.org/1999/xlink" x="0px" y="0px"
	 viewBox="0 0 100 100" style="enable-background:new 0 0 100 100;" xml:space="preserve">
<style type="text/css">
	.st0{fill:#FFFFA0;}
	.st1{fill:none;stroke:#17154D;stroke-width:1.5;stroke-linecap:round;stroke-linejoin:round;}
	.st2{fill:#F9F294;}
	.st3{fill:none;stroke:#17154C;stroke-width:4;stroke-linecap:round;stroke-linejoin:round;}
	.st4{fill:none;stroke:#17154C;stroke-width:3;stroke-miterlimit:10;}
	.st5{clip-path:url(#SVGID_2_);}
	.st6{clip-path:url(#SVGID_4_);fill:#F9F294;stroke:#17154C;stroke-width:6;stroke-miterlimit:10;}
	.st7{clip-path:url(#SVGID_6_);}
	.st8{clip-path:url(#SVGID_8_);fill:#17154C;}
	.st9{clip-path:url(#SVGID_10_);}
	.st10{clip-path:url(#SVGID_12_);fill:#F9F294;stroke:#17154C;stroke-width:6;stroke-miterlimit:10;}
	.st11{clip-path:url(#SVGID_14_);}
	.st12{clip-path:url(#SVGID_16_);fill:#17154C;}
	.st13{clip-path:url(#SVGID_18_);}
	.st14{clip-path:url(#SVGID_20_);fill:#F9F294;stroke:#17154C;stroke-width:6;stroke-miterlimit:10;}
	.st15{clip-path:url(#SVGID_22_);}
	.st16{clip-path:url(#SVGID_24_);fill:#17154C;}
	.st17{clip-path:url(#SVGID_26_);}
	.st18{clip-path:url(#SVGID_28_);fill:#F9F294;stroke:#17154C;stroke-width:6;stroke-miterlimit:10;}
	.st19{clip-path:url(#SVGID_30_);}
	.st20{clip-path:url(#SVGID_32_);fill:#17154C;}
	.st21{clip-path:url(#SVGID_34_);}
	.st22{clip-path:url(#SVGID_36_);fill:#F9F294;stroke:#17154C;stroke-width:6;stroke-miterlimit:10;}
	.st23{clip-path:url(#SVGID_38_);}
	.st24{clip-path:url(#SVGID_40_);fill:#17154C;}
	.st25{fill:none;stroke:#17154C;stroke-width:7.6781;stroke-linecap:round;stroke-linejoin:round;}
	.st26{fill:#17154C;}
	.st27{fill:#231F20;}
	.st28{fill:none;stroke:#17154D;stroke-width:4;stroke-linecap:round;stroke-linejoin:round;}
	.st29{fill:none;stroke:#000000;stroke-width:1.5;stroke-linecap:round;stroke-linejoin:round;}
	.st30{fill:none;stroke:#000000;stroke-width:4;stroke-linecap:round;stroke-linejoin:round;}
	.st31{fill:#17154D;}
	.st32{fill:#000050;}
	.st33{fill:none;stroke:#000050;stroke-width:1.5;stroke-linecap:round;stroke-linejoin:round;}
</style>
<g>
	<g>
		<g>
			<defs>
				
					<ellipse id="SVGID_1_" transform="matrix(0.7071 -0.7071 0.7071 0.7071 -32.4464 -418.7843)" cx="-521.7" cy="-170.2" rx="24.6" ry="24.7"/>
			</defs>
			<use xlink:href="#SVGID_1_"  style="overflow:visible;fill-rule:evenodd;clip-rule:evenodd;fill:#EAE291;"/>
			<clipPath id="SVGID_2_">
				<use xlink:href="#SVGID_1_"  style="overflow:visible;"/>
			</clipPath>
			<g class="st5">
				<defs>
					
						<rect id="SVGID_3_" x="-683.9" y="-453.3" transform="matrix(0.7071 -0.7071 0.7071 0.7071 -104.1364 -281.2884)" width="584.5" height="876.7"/>
				</defs>
				<use xlink:href="#SVGID_3_"  style="overflow:visible;fill:#EAE291;"/>
				<clipPath id="SVGID_4_">
					<use xlink:href="#SVGID_3_"  style="overflow:visible;"/>
				</clipPath>
				<use xlink:href="#SVGID_3_"  style="overflow:visible;fill:none;stroke:#17154C;stroke-width:6;stroke-miterlimit:10;"/>
			</g>
			
				<use xlink:href="#SVGID_1_"  style="overflow:visible;fill-rule:evenodd;clip-rule:evenodd;fill:none;stroke:#17154C;stroke-width:4;stroke-miterlimit:10;"/>
		</g>
		<g>
			<defs>
				<path id="SVGID_5_" d="M-512.3-173.8c-0.2-0.2-0.4-0.4-0.5-0.6c-1.4-1.4-3.4-2.3-5.8-2.4c-1.1-0.1-2.3,0-3.5,0.2
					c2.6-2.7,5.3-5.8,7.9-8.9l-3.7-3.7c-7.4,8.9-14.6,16-21,22.1l0,0c0,0,0,0,0,0l3.7,3.7c6.4-6.1,12-8.6,16.4-8.3
					c1.2,0.1,2.1,0.4,2.6,1.1c2.6,3.2-6.7,11.6-10.9,15.3l3.7,3.7c3.1-2.7,6.8-6.1,9.4-9.6C-510.2-166.3-509.6-170.5-512.3-173.8"/>
			</defs>
			<clipPath id="SVGID_6_">
				<use xlink:href="#SVGID_5_"  style="overflow:visible;"/>
			</clipPath>
			<g class="st7">
				<defs>
					
						<rect id="SVGID_7_" x="-683.9" y="-453.3" transform="matrix(0.7071 -0.7071 0.7071 0.7071 -104.1364 -281.2884)" width="584.5" height="876.7"/>
				</defs>
				<clipPath id="SVGID_8_">
					<use xlink:href="#SVGID_7_"  style="overflow:visible;"/>
				</clipPath>
			</g>
		</g>
	</g>
	<g>
		<g>
			<g>
				<defs>
					<ellipse id="SVGID_9_" cx="-522.2" cy="-72.7" rx="24.7" ry="24.6"/>
				</defs>
				<use xlink:href="#SVGID_9_"  style="overflow:visible;fill-rule:evenodd;clip-rule:evenodd;fill:#EAE291;"/>
				<clipPath id="SVGID_10_">
					<use xlink:href="#SVGID_9_"  style="overflow:visible;"/>
				</clipPath>
				<g class="st9">
					<defs>
						<rect id="SVGID_11_" x="-758.7" y="-347.2" width="876.7" height="584.5"/>
					</defs>
					<use xlink:href="#SVGID_11_"  style="overflow:visible;fill:#EAE291;"/>
					<clipPath id="SVGID_12_">
						<use xlink:href="#SVGID_11_"  style="overflow:visible;"/>
					</clipPath>
					<use xlink:href="#SVGID_11_"  style="overflow:visible;fill:none;stroke:#17154C;stroke-width:6;stroke-miterlimit:10;"/>
				</g>
				
					<use xlink:href="#SVGID_9_"  style="overflow:visible;fill-rule:evenodd;clip-rule:evenodd;fill:none;stroke:#17154C;stroke-width:4;stroke-miterlimit:10;"/>
			</g>
			<g>
				<defs>
					<path id="SVGID_13_" d="M-518-81.9c-0.3,0-0.5,0-0.8,0c-2,0-4,0.8-5.8,2.4c-0.8,0.7-1.6,1.6-2.3,2.6c-0.1-3.8-0.3-7.8-0.7-11.9
						h-5.2c1.1,11.5,1,21.6,0.8,30.4h0c0,0,0,0,0,0h5.2c0.2-8.8,2.4-14.5,5.7-17.4c0.9-0.8,1.8-1.1,2.6-1.1
						c4.1,0.4,3.4,12.9,3.1,18.5h5.2c0.2-4.1,0.5-9.1-0.1-13.4C-511.2-78.1-513.8-81.5-518-81.9"/>
				</defs>
				<clipPath id="SVGID_14_">
					<use xlink:href="#SVGID_13_"  style="overflow:visible;"/>
				</clipPath>
				<g class="st11">
					<defs>
						<rect id="SVGID_15_" x="-758.7" y="-347.2" width="876.7" height="584.5"/>
					</defs>
					<clipPath id="SVGID_16_">
						<use xlink:href="#SVGID_15_"  style="overflow:visible;"/>
					</clipPath>
				</g>
			</g>
		</g>
		<g>
			<g>
				<defs>
					<ellipse id="SVGID_17_" cx="-522.2" cy="-80" rx="24.7" ry="24.6"/>
				</defs>
				<use xlink:href="#SVGID_17_"  style="overflow:visible;fill-rule:evenodd;clip-rule:evenodd;fill:#EAE291;"/>
				<clipPath id="SVGID_18_">
					<use xlink:href="#SVGID_17_"  style="overflow:visible;"/>
				</clipPath>
				<g class="st13">
					<defs>
						<rect id="SVGID_19_" x="-758.7" y="-354.5" width="876.7" height="584.5"/>
					</defs>
					<use xlink:href="#SVGID_19_"  style="overflow:visible;fill:#EAE291;"/>
					<clipPath id="SVGID_20_">
						<use xlink:href="#SVGID_19_"  style="overflow:visible;"/>
					</clipPath>
					<use xlink:href="#SVGID_19_"  style="overflow:visible;fill:none;stroke:#17154C;stroke-width:6;stroke-miterlimit:10;"/>
				</g>
				
					<use xlink:href="#SVGID_17_"  style="overflow:visible;fill-rule:evenodd;clip-rule:evenodd;fill:none;stroke:#17154C;stroke-width:4;stroke-miterlimit:10;"/>
			</g>
			<g>
				<defs>
					<path id="SVGID_21_" d="M-518-89.2c-0.3,0-0.5,0-0.8,0c-2,0-4,0.8-5.8,2.4c-0.8,0.7-1.6,1.6-2.3,2.6c-0.1-3.8-0.3-7.8-0.7-11.9
						h-5.2c1.1,11.5,1,21.6,0.8,30.4h0c0,0,0,0,0,0h5.2c0.2-8.8,2.4-14.5,5.7-17.4c0.9-0.8,1.8-1.1,2.6-1.1
						c4.1,0.4,3.4,12.9,3.1,18.5h5.2c0.2-4.1,0.5-9.1-0.1-13.4C-511.2-85.4-513.8-88.8-518-89.2"/>
				</defs>
				<clipPath id="SVGID_22_">
					<use xlink:href="#SVGID_21_"  style="overflow:visible;"/>
				</clipPath>
				<g class="st15">
					<defs>
						<rect id="SVGID_23_" x="-758.7" y="-354.5" width="876.7" height="584.5"/>
					</defs>
					<clipPath id="SVGID_24_">
						<use xlink:href="#SVGID_23_"  style="overflow:visible;"/>
					</clipPath>
				</g>
			</g>
		</g>
		<g>
			<g>
				<defs>
					<ellipse id="SVGID_25_" cx="-522.2" cy="-87.3" rx="24.7" ry="24.6"/>
				</defs>
				<use xlink:href="#SVGID_25_"  style="overflow:visible;fill-rule:evenodd;clip-rule:evenodd;fill:#EAE291;"/>
				<clipPath id="SVGID_26_">
					<use xlink:href="#SVGID_25_"  style="overflow:visible;"/>
				</clipPath>
				<g class="st17">
					<defs>
						<rect id="SVGID_27_" x="-758.7" y="-361.8" width="876.7" height="584.5"/>
					</defs>
					<use xlink:href="#SVGID_27_"  style="overflow:visible;fill:#EAE291;"/>
					<clipPath id="SVGID_28_">
						<use xlink:href="#SVGID_27_"  style="overflow:visible;"/>
					</clipPath>
					<use xlink:href="#SVGID_27_"  style="overflow:visible;fill:none;stroke:#17154C;stroke-width:6;stroke-miterlimit:10;"/>
				</g>
				
					<use xlink:href="#SVGID_25_"  style="overflow:visible;fill-rule:evenodd;clip-rule:evenodd;fill:none;stroke:#17154C;stroke-width:4;stroke-miterlimit:10;"/>
			</g>
			<g>
				<defs>
					<path id="SVGID_29_" d="M-518-96.5c-0.3,0-0.5,0-0.8,0c-2,0-4,0.8-5.8,2.4c-0.8,0.7-1.6,1.6-2.3,2.6c-0.1-3.8-0.3-7.8-0.7-11.9
						h-5.2c1.1,11.5,1,21.6,0.8,30.4h0c0,0,0,0,0,0h5.2c0.2-8.8,2.4-14.5,5.7-17.4c0.9-0.8,1.8-1.1,2.6-1.1
						c4.1,0.4,3.4,12.9,3.1,18.5h5.2c0.2-4.1,0.5-9.1-0.1-13.4C-511.2-92.7-513.8-96.1-518-96.5"/>
				</defs>
				<clipPath id="SVGID_30_">
					<use xlink:href="#SVGID_29_"  style="overflow:visible;"/>
				</clipPath>
				<g class="st19">
					<defs>
						<rect id="SVGID_31_" x="-758.7" y="-361.8" width="876.7" height="584.5"/>
					</defs>
					<clipPath id="SVGID_32_">
						<use xlink:href="#SVGID_31_"  style="overflow:visible;"/>
					</clipPath>
				</g>
			</g>
		</g>
		<g>
			<g>
				<defs>
					<ellipse id="SVGID_33_" cx="-522.2" cy="-95.4" rx="24.7" ry="24.6"/>
				</defs>
				<use xlink:href="#SVGID_33_"  style="overflow:visible;fill-rule:evenodd;clip-rule:evenodd;fill:#EAE291;"/>
				<clipPath id="SVGID_34_">
					<use xlink:href="#SVGID_33_"  style="overflow:visible;"/>
				</clipPath>
				<g class="st21">
					<defs>
						<rect id="SVGID_35_" x="-758.7" y="-369.8" width="876.7" height="584.5"/>
					</defs>
					<use xlink:href="#SVGID_35_"  style="overflow:visible;fill:#EAE291;"/>
					<clipPath id="SVGID_36_">
						<use xlink:href="#SVGID_35_"  style="overflow:visible;"/>
					</clipPath>
					<use xlink:href="#SVGID_35_"  style="overflow:visible;fill:none;stroke:#17154C;stroke-width:6;stroke-miterlimit:10;"/>
				</g>
				
					<use xlink:href="#SVGID_33_"  style="overflow:visible;fill-rule:evenodd;clip-rule:evenodd;fill:none;stroke:#17154C;stroke-width:4;stroke-miterlimit:10;"/>
			</g>
			<g>
				<defs>
					<path id="SVGID_37_" d="M-518-104.6c-0.3,0-0.5,0-0.8,0c-2,0-4,0.8-5.8,2.4c-0.8,0.7-1.6,1.6-2.3,2.6
						c-0.1-3.8-0.3-7.8-0.7-11.9h-5.2c1.1,11.5,1,21.6,0.8,30.4h0c0,0,0,0,0,0h5.2c0.2-8.8,2.4-14.5,5.7-17.4
						c0.9-0.8,1.8-1.1,2.6-1.1c4.1,0.4,3.4,12.9,3.1,18.5h5.2c0.2-4.1,0.5-9.1-0.1-13.4C-511.2-100.7-513.8-104.1-518-104.6"/>
				</defs>
				<clipPath id="SVGID_38_">
					<use xlink:href="#SVGID_37_"  style="overflow:visible;"/>
				</clipPath>
				<g class="st23">
					<defs>
						<rect id="SVGID_39_" x="-758.7" y="-369.8" width="876.7" height="584.5"/>
					</defs>
					<clipPath id="SVGID_40_">
						<use xlink:href="#SVGID_39_"  style="overflow:visible;"/>
					</clipPath>
				</g>
			</g>
		</g>
	</g>
</g>
<circle class="st0" cx="49.7" cy="50.7" r="44.3"/>
<g id="School-Learning__x2F__Studying_x2F_Learning__x2F__study-book_5_">
	<g id="Group_31_5_">
		<g id="study-book_5_">
			<path class="st31" d="M36.7,74.6c-0.2,0-0.5,0-0.7-0.1c-6.4-2.1-13.1-3.3-19.9-3.5c-3.9-0.2-7-3.4-6.9-7.3V18.2
				c0-2,0.8-4,2.3-5.4c1.5-1.4,3.5-2.1,5.5-2c17.1,0.9,28.3,5.9,32.7,11.5c4.9-5.9,17.5-10.5,32.7-11.4c2-0.1,4,0.6,5.5,1.9
				c1.5,1.4,2.3,3.3,2.3,5.4v42.9c0,1.2-1,2.2-2.2,2.2c-1.2,0-2.2-1-2.2-2.2V18.2c0-0.8-0.3-1.6-0.9-2.1c-0.6-0.5-1.4-0.8-2.2-0.8
				C62.5,16.5,51.9,24,51.9,27.8c0,1.2-1,2.2-2.2,2.2s-2.2-1-2.2-2.2c0-3.8-9-11.4-30.8-12.5c-0.9-0.1-1.6,0.2-2.2,0.8
				c-0.6,0.5-0.9,1.3-0.9,2.1v45.5c0,1.5,1.2,2.8,2.7,2.9c7.1,0.2,14.2,1.5,21.1,3.7c1.2,0.4,1.8,1.6,1.4,2.8
				C38.5,74,37.6,74.6,36.7,74.6z"/>
			<path class="st31" d="M49.7,43.2c-1.2,0-2.2-1-2.2-2.2V27.8c0-1.2,1-2.2,2.2-2.2s2.2,1,2.2,2.2V41C51.9,42.2,50.9,43.2,49.7,43.2
				z"/>
			<path class="st31" d="M40.7,34.8c-0.2,0-0.5,0-0.7-0.1c-6-2.2-12.2-3.6-18.5-4.3c-1.2-0.1-2.1-1.2-1.9-2.4
				c0.1-1.2,1.2-2.1,2.4-1.9c6.6,0.7,13.2,2.3,19.5,4.5c1.1,0.4,1.7,1.7,1.3,2.8C42.4,34.3,41.6,34.8,40.7,34.8z"/>
			<path class="st31" d="M75,44c-1.1,0-2-0.8-2.2-1.8c-0.2-1.2,0.6-2.3,1.8-2.5c1.2-0.2,2.4-0.4,3.7-0.5c1.2-0.1,2.3,0.7,2.5,1.9
				c0.2,1.2-0.7,2.3-1.9,2.5c-1.2,0.2-2.4,0.3-3.6,0.5C75.2,43.9,75.1,44,75,44z"/>
			<path class="st31" d="M40.7,47.8c-0.2,0-0.5,0-0.7-0.1c-6-2.1-12.2-3.6-18.5-4.3c-1.2-0.1-2.1-1.2-1.9-2.4c0.1-1.2,1.2-2,2.4-1.9
				c6.6,0.8,13.2,2.3,19.5,4.5c1.1,0.4,1.7,1.7,1.3,2.8C42.4,47.3,41.6,47.8,40.7,47.8z"/>
			<path class="st31" d="M40.7,61.6c-0.2,0-0.5,0-0.7-0.1c-6-2.1-12.3-3.6-18.7-4.3C20,57,19.2,56,19.3,54.7
				c0.1-1.2,1.2-2.1,2.4-1.9c6.7,0.8,13.3,2.3,19.7,4.5c1.1,0.4,1.7,1.7,1.3,2.8C42.4,61.1,41.6,61.6,40.7,61.6z"/>
			<path class="st31" d="M59.6,34.9c-0.9,0-1.8-0.6-2.1-1.5c-0.4-1.1,0.2-2.4,1.3-2.8c6.4-2.3,13-3.8,19.7-4.5
				c1.2-0.1,2.3,0.7,2.4,1.9c0.1,1.2-0.7,2.3-1.9,2.4c-6.4,0.7-12.6,2.2-18.7,4.3C60.1,34.8,59.8,34.9,59.6,34.9z"/>
			<path class="st31" d="M87.7,91.8c-0.1,0-0.1,0-0.2,0c-1.2-0.1-2.1-1.2-2-2.4l0.3-3.8c0.4-4-2.3-7.7-6.2-8.6l-12.4-2.8
				c-1-0.2-1.7-1.1-1.7-2.2V52.5c0-2.3-1.9-4.2-4.2-4.2c-2.3,0-4.2,1.9-4.2,4.2v31.4c0,0.8-0.5,1.6-1.2,2c-0.7,0.4-1.6,0.3-2.3-0.2
				l-5-3.8c-1.2-0.9-2.9-0.8-3.9,0.3c-1.1,1.1-1.2,2.8-0.3,3.9l1.6,2.2c0.7,1,0.5,2.4-0.4,3.1c-1,0.7-2.4,0.5-3.1-0.4l-1.6-2.2
				c-2.2-2.9-1.9-7.1,0.7-9.7c2.6-2.6,6.8-2.9,9.7-0.7l1.5,1.1v-27c0-4.7,3.9-8.6,8.6-8.6s8.6,3.9,8.6,8.6v17.8l10.7,2.4
				c6.1,1.4,10.2,7.1,9.7,13.3l-0.3,3.8C89.8,90.9,88.8,91.8,87.7,91.8z"/>
		</g>
	</g>
</g>
</svg>
