<svg id="Layer_1" data-name="Layer 1" xmlns="http://www.w3.org/2000/svg" viewBox="0 0 100 100"><defs><style>.cls-1{fill:#ffffa0;}.cls-2{fill:none;stroke:#000050;stroke-linecap:round;stroke-linejoin:round;stroke-width:4px;}.cls-3{fill:#17154c;}</style></defs><circle class="cls-1" cx="50" cy="49.67" r="44.3"/><line class="cls-2" x1="50.07" y1="19.72" x2="50.07" y2="25.05"/><g id="Business-Products_Business_cash-molecule" data-name="Business-Products / Business / cash-molecule"><g id="Group_6" data-name="Group 6"><g id="cash-molecule"><path id="Shape_29" data-name="Shape 29" class="cls-2" d="M86.72,62.41V37.84"/><path id="Shape_30" data-name="Shape 30" class="cls-2" d="M27.6,70,20,73.64"/><path id="Shape_31" data-name="Shape 31" class="cls-2" d="M42.74,14.26,20,26.61"/><path id="Shape_32" data-name="Shape 32" class="cls-2" d="M80,26.56,57.39,14.26"/><path id="Oval_2" data-name="Oval 2" class="cls-2" d="M50.07,19.72a7.64,7.64,0,1,0-7.64-7.64A7.64,7.64,0,0,0,50.07,19.72Z"/><path id="Shape_33" data-name="Shape 33" class="cls-2" d="M42.82,86,20,73.64"/><path id="Shape_34" data-name="Shape 34" class="cls-2" d="M79.08,70l-5.23-1.13"/><path id="Oval_3" data-name="Oval 3" class="cls-2" d="M50.07,96.08a7.64,7.64,0,1,0-7.64-7.64A7.64,7.64,0,0,0,50.07,96.08Z"/><path id="Oval_4" data-name="Oval 4" class="cls-2" d="M13.28,37.84a7.64,7.64,0,1,0-7.64-7.63A7.64,7.64,0,0,0,13.28,37.84Z"/><path id="Oval_5" data-name="Oval 5" class="cls-2" d="M13.28,77.68A7.64,7.64,0,1,0,5.64,70,7.64,7.64,0,0,0,13.28,77.68Z"/><path id="Oval_6" data-name="Oval 6" class="cls-2" d="M86.72,37.84a7.64,7.64,0,1,0-7.64-7.63A7.64,7.64,0,0,0,86.72,37.84Z"/><path id="Oval_7" data-name="Oval 7" class="cls-2" d="M86.72,77.68A7.64,7.64,0,1,0,79.08,70,7.64,7.64,0,0,0,86.72,77.68Z"/></g></g></g><path class="cls-3" d="M54.48,38.59a9.46,9.46,0,0,0-1.07-.06,11.37,11.37,0,0,0-7.59,3.16,20.48,20.48,0,0,0-3,3.49c-.16-5-.46-10.41-1-15.89H35A338.17,338.17,0,0,1,36,70h0v.06h6.8C43,58.22,46,50.63,50.36,46.73a4.45,4.45,0,0,1,3.39-1.41c5.38.58,4.52,17.33,4.12,24.73h6.8c.3-5.48.62-12.15-.17-17.94C63.36,43.73,60,39.18,54.48,38.59Z"/></svg>