<?xml version="1.0" encoding="utf-8"?>
<!-- Generator: Adobe Illustrator 24.0.1, SVG Export Plug-In . SVG Version: 6.00 Build 0)  -->
<svg version="1.1" id="Layer_1" xmlns="http://www.w3.org/2000/svg" xmlns:xlink="http://www.w3.org/1999/xlink" x="0px" y="0px"
	 viewBox="0 0 100 100" style="enable-background:new 0 0 100 100;" xml:space="preserve">
<style type="text/css">
	.st0{fill:#FFFFA0;}
	.st1{fill:none;stroke:#17154D;stroke-width:1.5;stroke-linecap:round;stroke-linejoin:round;}
	.st2{fill:#F9F294;}
	.st3{fill:none;stroke:#17154C;stroke-width:4;stroke-linecap:round;stroke-linejoin:round;}
	.st4{fill:none;stroke:#17154C;stroke-width:3;stroke-miterlimit:10;}
	.st5{clip-path:url(#SVGID_2_);}
	.st6{clip-path:url(#SVGID_4_);fill:#F9F294;stroke:#17154C;stroke-width:6;stroke-miterlimit:10;}
	.st7{clip-path:url(#SVGID_6_);}
	.st8{clip-path:url(#SVGID_8_);fill:#17154C;}
	.st9{clip-path:url(#SVGID_10_);}
	.st10{clip-path:url(#SVGID_12_);fill:#F9F294;stroke:#17154C;stroke-width:6;stroke-miterlimit:10;}
	.st11{clip-path:url(#SVGID_14_);}
	.st12{clip-path:url(#SVGID_16_);fill:#17154C;}
	.st13{clip-path:url(#SVGID_18_);}
	.st14{clip-path:url(#SVGID_20_);fill:#F9F294;stroke:#17154C;stroke-width:6;stroke-miterlimit:10;}
	.st15{clip-path:url(#SVGID_22_);}
	.st16{clip-path:url(#SVGID_24_);fill:#17154C;}
	.st17{clip-path:url(#SVGID_26_);}
	.st18{clip-path:url(#SVGID_28_);fill:#F9F294;stroke:#17154C;stroke-width:6;stroke-miterlimit:10;}
	.st19{clip-path:url(#SVGID_30_);}
	.st20{clip-path:url(#SVGID_32_);fill:#17154C;}
	.st21{clip-path:url(#SVGID_34_);}
	.st22{clip-path:url(#SVGID_36_);fill:#F9F294;stroke:#17154C;stroke-width:6;stroke-miterlimit:10;}
	.st23{clip-path:url(#SVGID_38_);}
	.st24{clip-path:url(#SVGID_40_);fill:#17154C;}
	.st25{fill:none;stroke:#17154C;stroke-width:7.6781;stroke-linecap:round;stroke-linejoin:round;}
	.st26{fill:#17154C;}
	.st27{fill:#231F20;}
	.st28{fill:none;stroke:#17154D;stroke-width:4;stroke-linecap:round;stroke-linejoin:round;}
	.st29{fill:none;stroke:#000000;stroke-width:1.5;stroke-linecap:round;stroke-linejoin:round;}
	.st30{fill:none;stroke:#000000;stroke-width:4;stroke-linecap:round;stroke-linejoin:round;}
	.st31{fill:#17154D;}
	.st32{fill:#000050;}
	.st33{fill:none;stroke:#000050;stroke-width:1.5;stroke-linecap:round;stroke-linejoin:round;}
</style>
<circle class="st0" cx="53.5" cy="51.9" r="43.9"/>
<path class="st32" d="M72.3,25.4c-0.2,0-0.5,0-0.7,0c-1.9,0-3.7,0.8-5.3,2.2c-0.8,0.7-1.5,1.5-2.1,2.4c-0.1-3.5-0.3-7.3-0.7-11.1
	h-4.8c1,10.8,0.9,20.1,0.7,28.4h0c0,0,0,0,0,0h4.7c0.1-8.3,2.2-13.5,5.3-16.3c0.8-0.7,1.6-1.1,2.4-1c3.8,0.4,3.2,12.1,2.9,17.3h4.7
	c0.2-3.8,0.4-8.5-0.1-12.5C78.5,29,76.2,25.8,72.3,25.4z"/>
<g id="Programming-Apps-Websites__x2F__Databases__x2F__database-hand_5_">
	<g id="Group_126_5_">
		<g id="database-hand_5_">
			<path class="st32" d="M5.5,92.3c-1.2,0-2.2-1-2.2-2.2V52.8c0-1.2,1-2.2,2.2-2.2s2.2,1,2.2,2.2v37.4C7.7,91.3,6.7,92.3,5.5,92.3z"
				/>
			<path class="st32" d="M67.7,86.1H5.5c-1.2,0-2.2-1-2.2-2.2s1-2.2,2.2-2.2h59.8c-1-4.6-5.1-8-10-8H39.7c-1.2,0-2.2-1-2.2-2.2
				c0-5.7-4.6-10.2-10.3-10.2H5.5c-1.2,0-2.2-1-2.2-2.2s1-2.2,2.2-2.2h21.8c7.3,0,13.4,5.4,14.5,12.5h13.5c8.1,0,14.7,6.6,14.7,14.7
				C69.9,85.1,69,86.1,67.7,86.1z"/>
			<path class="st32" d="M39.7,73.7H27.3c-1.2,0-2.2-1-2.2-2.2s1-2.2,2.2-2.2h12.5c1.2,0,2.2,1,2.2,2.2S40.9,73.7,39.7,73.7z"/>
		</g>
	</g>
</g>
<path class="st32" d="M67.7,62.2c-16,0-29-13-29-29s13-29,29-29s29,13,29,29S83.7,62.2,67.7,62.2z M67.7,8.5
	c-13.6,0-24.6,11-24.6,24.6s11,24.6,24.6,24.6s24.6-11,24.6-24.6S81.3,8.5,67.7,8.5z"/>
</svg>
