<svg width="72" height="72" xmlns="http://www.w3.org/2000/svg" xmlns:xlink="http://www.w3.org/1999/xlink"><defs><filter x="-43.1%" y="-43.1%" width="186.1%" height="186.1%" filterUnits="objectBoundingBox" id="a"><feOffset dy="4" in="SourceAlpha" result="shadowOffsetOuter1"/><feGaussianBlur stdDeviation="6" in="shadowOffsetOuter1" result="shadowBlurOuter1"/><feColorMatrix values="0 0 0 0 0.180392157 0 0 0 0 0.203921569 0 0 0 0 0.345098039 0 0 0 0.24 0" in="shadowBlurOuter1" result="shadowMatrixOuter1"/><feMerge><feMergeNode in="shadowMatrixOuter1"/><feMergeNode in="SourceGraphic"/></feMerge></filter><filter x="-93.3%" y="-41.7%" width="286.7%" height="216.7%" filterUnits="objectBoundingBox" id="b"><feOffset dy="4" in="SourceAlpha" result="shadowOffsetOuter1"/><feGaussianBlur stdDeviation="4" in="shadowOffsetOuter1" result="shadowBlurOuter1"/><feColorMatrix values="0 0 0 0 0.180392157 0 0 0 0 0.203921569 0 0 0 0 0.345098039 0 0 0 0.16 0" in="shadowBlurOuter1"/></filter><linearGradient x1="0%" y1="100%" x2="100%" y2="0%" id="d"><stop stop-color="#D8DDFF" offset="0%"/><stop stop-color="#FFF" offset="100%"/></linearGradient><path d="M46 24H33a1 1 0 00-1 1v22a1 1 0 001 1h13a1 1 0 001-1V25a1 1 0 00-1-1zm-1 22H34v-4h7a1 1 0 001-1V31a1 1 0 00-1-1h-7v-4h11v20z" id="c"/></defs><g filter="url(#a)" fill-rule="nonzero" fill="none"><use fill="#000" filter="url(#b)" xlink:href="#c"/><use fill="url(#d)" xlink:href="#c"/><path d="M23 31v10a1 1 0 001 1h6v-2h-5v-8h5v-2h-6a1 1 0 00-1 1z" fill-opacity=".64" fill="url(#d)"/></g></svg>