<svg width="72" height="72" xmlns="http://www.w3.org/2000/svg" xmlns:xlink="http://www.w3.org/1999/xlink"><defs><filter x="-43.1%" y="-43.1%" width="186.1%" height="186.1%" filterUnits="objectBoundingBox" id="a"><feOffset dy="4" in="SourceAlpha" result="shadowOffsetOuter1"/><feGaussianBlur stdDeviation="6" in="shadowOffsetOuter1" result="shadowBlurOuter1"/><feColorMatrix values="0 0 0 0 0.180392157 0 0 0 0 0.203921569 0 0 0 0 0.345098039 0 0 0 0.24 0" in="shadowBlurOuter1" result="shadowMatrixOuter1"/><feMerge><feMergeNode in="shadowMatrixOuter1"/><feMergeNode in="SourceGraphic"/></feMerge></filter><filter x="-63.6%" y="-45.5%" width="227.3%" height="227.3%" filterUnits="objectBoundingBox" id="c"><feOffset dy="4" in="SourceAlpha" result="shadowOffsetOuter1"/><feGaussianBlur stdDeviation="4" in="shadowOffsetOuter1" result="shadowBlurOuter1"/><feColorMatrix values="0 0 0 0 0.180392157 0 0 0 0 0.203921569 0 0 0 0 0.345098039 0 0 0 0.16 0" in="shadowBlurOuter1"/></filter><linearGradient x1="0%" y1="100%" x2="100%" y2="0%" id="b"><stop stop-color="#D8DDFF" offset="0%"/><stop stop-color="#FFF" offset="100%"/></linearGradient><path d="M44 25h-4v2h4a1 1 0 011 1v11h-6v3h-6v-3h-6V28a1 1 0 011-1h4v-2h-4a3 3 0 00-3 3v16a3 3 0 003 3h16a3 3 0 003-3V28a3 3 0 00-3-3z" id="d"/></defs><g filter="url(#a)" fill-rule="nonzero" fill="none"><path fill-opacity=".64" fill="url(#b)" d="M37 25v7h3l-4 5-4-5h3v-7z"/><use fill="#000" filter="url(#c)" xlink:href="#d"/><use fill="url(#b)" xlink:href="#d"/></g></svg>