<svg width="712" height="400" xmlns="http://www.w3.org/2000/svg" xmlns:xlink="http://www.w3.org/1999/xlink"><defs><linearGradient x1="51.673%" y1="100%" x2="51.673%" y2="0%" id="a"><stop stop-color="#F9FAFC" offset="0%"/><stop stop-color="#FFF" offset="100%"/></linearGradient><linearGradient x1="77.999%" y1="9.763%" x2="24.434%" y2="90.469%" id="d"><stop stop-color="#2E3458" stop-opacity=".88" offset="0%"/><stop stop-color="#2E3458" offset="100%"/></linearGradient><filter x="-70%" y="-50%" width="240%" height="240%" filterUnits="objectBoundingBox" id="b"><feOffset dy="16" in="SourceAlpha" result="shadowOffsetOuter1"/><feGaussianBlur stdDeviation="16" in="shadowOffsetOuter1" result="shadowBlurOuter1"/><feColorMatrix values="0 0 0 0 0.180392157 0 0 0 0 0.203921569 0 0 0 0 0.345098039 0 0 0 0.24 0" in="shadowBlurOuter1"/></filter><filter x="-466.7%" y="-250%" width="1033.3%" height="800%" filterUnits="objectBoundingBox" id="e"><feOffset dy="16" in="SourceAlpha" result="shadowOffsetOuter1"/><feGaussianBlur stdDeviation="16" in="shadowOffsetOuter1" result="shadowBlurOuter1"/><feColorMatrix values="0 0 0 0 0.062745098 0 0 0 0 0.0862745098 0 0 0 0 0.254901961 0 0 0 0.24 0" in="shadowBlurOuter1"/></filter><circle id="c" cx="40" cy="40" r="40"/><path d="M48 40a.999.999 0 00-.427-.82l-10-7A1 1 0 0036 33V47a.999.999 0 001.573.82l10-7A.995.995 0 0048 40V40c0 .001 0 .001 0 0z" id="f"/></defs><g fill="none" fill-rule="evenodd"><path fill="url(#a)" d="M0 0h712v400H0z"/><g transform="translate(316 160)"><use fill="#000" filter="url(#b)" xlink:href="#c"/><use fill="url(#d)" xlink:href="#c"/></g><g transform="translate(316 160)"><use fill="#000" filter="url(#e)" xlink:href="#f"/><use fill="#7085FE" xlink:href="#f"/></g></g></svg>