<svg width="72" height="72" xmlns="http://www.w3.org/2000/svg" xmlns:xlink="http://www.w3.org/1999/xlink"><defs><filter x="-43.1%" y="-43.1%" width="186.1%" height="186.1%" filterUnits="objectBoundingBox" id="a"><feOffset dy="4" in="SourceAlpha" result="shadowOffsetOuter1"/><feGaussianBlur stdDeviation="6" in="shadowOffsetOuter1" result="shadowBlurOuter1"/><feColorMatrix values="0 0 0 0 0.180392157 0 0 0 0 0.203921569 0 0 0 0 0.345098039 0 0 0 0.24 0" in="shadowBlurOuter1" result="shadowMatrixOuter1"/><feMerge><feMergeNode in="shadowMatrixOuter1"/><feMergeNode in="SourceGraphic"/></feMerge></filter><filter x="-155.6%" y="-111.1%" width="411.1%" height="411.1%" filterUnits="objectBoundingBox" id="b"><feOffset dy="4" in="SourceAlpha" result="shadowOffsetOuter1"/><feGaussianBlur stdDeviation="4" in="shadowOffsetOuter1" result="shadowBlurOuter1"/><feColorMatrix values="0 0 0 0 0.180392157 0 0 0 0 0.203921569 0 0 0 0 0.345098039 0 0 0 0.16 0" in="shadowBlurOuter1"/></filter><filter x="-155.6%" y="-111.1%" width="411.1%" height="411.1%" filterUnits="objectBoundingBox" id="e"><feOffset dy="4" in="SourceAlpha" result="shadowOffsetOuter1"/><feGaussianBlur stdDeviation="4" in="shadowOffsetOuter1" result="shadowBlurOuter1"/><feColorMatrix values="0 0 0 0 0.180392157 0 0 0 0 0.203921569 0 0 0 0 0.345098039 0 0 0 0.16 0" in="shadowBlurOuter1"/></filter><path d="M32 34h-7a1 1 0 01-1-1v-7a1 1 0 011-1h7a1 1 0 011 1v7a1 1 0 01-1 1z" id="c"/><path d="M32 47h-7a1 1 0 01-1-1v-7a1 1 0 011-1h7a1 1 0 011 1v7a1 1 0 01-1 1z" id="f"/><linearGradient x1="0%" y1="100%" x2="100%" y2="0%" id="d"><stop stop-color="#D8DDFF" offset="0%"/><stop stop-color="#FFF" offset="100%"/></linearGradient></defs><g filter="url(#a)" fill-rule="nonzero" fill="none"><use fill="#000" filter="url(#b)" xlink:href="#c"/><use fill="url(#d)" xlink:href="#c"/><use fill="#000" filter="url(#e)" xlink:href="#f"/><use fill="url(#d)" xlink:href="#f"/><path fill-opacity=".64" fill="url(#d)" d="M36 26h10v2H36zM36 31h10v2H36zM36 39h10v2H36zM36 44h10v2H36z"/></g></svg>