<svg width="72" height="72" xmlns="http://www.w3.org/2000/svg" xmlns:xlink="http://www.w3.org/1999/xlink"><defs><filter x="-43.1%" y="-43.1%" width="186.1%" height="186.1%" filterUnits="objectBoundingBox" id="a"><feOffset dy="4" in="SourceAlpha" result="shadowOffsetOuter1"/><feGaussianBlur stdDeviation="6" in="shadowOffsetOuter1" result="shadowBlurOuter1"/><feColorMatrix values="0 0 0 0 0.180392157 0 0 0 0 0.203921569 0 0 0 0 0.345098039 0 0 0 0.24 0" in="shadowBlurOuter1" result="shadowMatrixOuter1"/><feMerge><feMergeNode in="shadowMatrixOuter1"/><feMergeNode in="SourceGraphic"/></feMerge></filter><filter x="-140%" y="-500%" width="380%" height="1500%" filterUnits="objectBoundingBox" id="b"><feOffset dy="4" in="SourceAlpha" result="shadowOffsetOuter1"/><feGaussianBlur stdDeviation="4" in="shadowOffsetOuter1" result="shadowBlurOuter1"/><feColorMatrix values="0 0 0 0 0.180392157 0 0 0 0 0.203921569 0 0 0 0 0.345098039 0 0 0 0.16 0" in="shadowBlurOuter1"/></filter><filter x="-140%" y="-125%" width="380%" height="450%" filterUnits="objectBoundingBox" id="e"><feOffset dy="4" in="SourceAlpha" result="shadowOffsetOuter1"/><feGaussianBlur stdDeviation="4" in="shadowOffsetOuter1" result="shadowBlurOuter1"/><feColorMatrix values="0 0 0 0 0.180392157 0 0 0 0 0.203921569 0 0 0 0 0.345098039 0 0 0 0.16 0" in="shadowBlurOuter1"/></filter><filter x="-140%" y="-500%" width="380%" height="1500%" filterUnits="objectBoundingBox" id="g"><feOffset dy="4" in="SourceAlpha" result="shadowOffsetOuter1"/><feGaussianBlur stdDeviation="4" in="shadowOffsetOuter1" result="shadowBlurOuter1"/><feColorMatrix values="0 0 0 0 0.180392157 0 0 0 0 0.203921569 0 0 0 0 0.345098039 0 0 0 0.16 0" in="shadowBlurOuter1"/></filter><filter x="-140%" y="-125%" width="380%" height="450%" filterUnits="objectBoundingBox" id="i"><feOffset dy="4" in="SourceAlpha" result="shadowOffsetOuter1"/><feGaussianBlur stdDeviation="4" in="shadowOffsetOuter1" result="shadowBlurOuter1"/><feColorMatrix values="0 0 0 0 0.180392157 0 0 0 0 0.203921569 0 0 0 0 0.345098039 0 0 0 0.16 0" in="shadowBlurOuter1"/></filter><path d="M46 27h-9v2h9a1 1 0 000-2z" id="c"/><path d="M26 29h5v3h4v-8h-4v3h-5a1 1 0 000 2z" id="f"/><path d="M46 43h-9v2h9a1 1 0 000-2z" id="h"/><path d="M26 45h5v3h4v-8h-4v3h-5a1 1 0 000 2z" id="j"/><linearGradient x1="0%" y1="100%" x2="100%" y2="0%" id="d"><stop stop-color="#D8DDFF" offset="0%"/><stop stop-color="#FFF" offset="100%"/></linearGradient></defs><g filter="url(#a)" fill-rule="nonzero" fill="none"><use fill="#000" filter="url(#b)" xlink:href="#c"/><use fill="url(#d)" xlink:href="#c"/><use fill="#000" filter="url(#e)" xlink:href="#f"/><use fill="url(#d)" xlink:href="#f"/><use fill="#000" filter="url(#g)" xlink:href="#h"/><use fill="url(#d)" xlink:href="#h"/><g><use fill="#000" filter="url(#i)" xlink:href="#j"/><use fill="url(#d)" xlink:href="#j"/></g><path d="M46 35h-3v2h3a1 1 0 000-2zM26 37h11v3h4v-8h-4v3H26a1 1 0 000 2z" fill-opacity=".64" fill="url(#d)"/></g></svg>