<svg width="897" height="178" viewBox="0 0 897 178" fill="none" xmlns="http://www.w3.org/2000/svg">
<path d="M138.675 89.5488V53.0014L53.9427 0V36.5474L138.675 89.5488Z" fill="#9D9D9D"/>
<path d="M0 70.0064V33.4389L53.9428 0V36.5674L0 70.0064Z" fill="#C4C4C4"/>
<path d="M84.732 123.067V86.4696L0 33.395V69.9929L84.732 123.067Z" fill="black"/>
<path d="M84.732 123.068V86.5005L138.675 53.0615V89.6289L84.732 123.068Z" fill="#4B4B4B"/>
<path d="M53.9575 0L0 33.434L84.7173 86.4566L138.675 53.0226L53.9575 0Z" fill="black"/>
<path d="M55.0994 9.771L15.5178 34.2127L77.6638 72.9746L117.245 48.5329L55.0994 9.771Z" fill="white"/>
<path fill-rule="evenodd" clip-rule="evenodd" d="M19.4557 30.5774C19.9267 29.8148 20.9244 29.5798 21.6842 30.0527L29.777 35.0896C30.5368 35.5624 30.7708 36.564 30.2998 37.3267C29.8287 38.0894 28.831 38.3243 28.0713 37.8514L19.9784 32.8146C19.2187 32.3417 18.9846 31.3401 19.4557 30.5774Z" fill="#171717"/>
<path fill-rule="evenodd" clip-rule="evenodd" d="M24.5024 27.5972C24.9684 26.8459 25.9553 26.6145 26.7067 27.0803L34.7116 32.042C35.4631 32.5078 35.6946 33.4945 35.2287 34.2457C34.7628 34.997 33.7759 35.2285 33.0244 34.7627L25.0195 29.8009C24.268 29.3351 24.0365 28.3485 24.5024 27.5972Z" fill="#171717"/>
<path fill-rule="evenodd" clip-rule="evenodd" d="M29.4314 24.5049C29.9024 23.7537 30.9001 23.5222 31.6599 23.988L39.7527 28.9497C40.5125 29.4155 40.7465 30.4022 40.2755 31.1535C39.8044 31.9047 38.8067 32.1362 38.047 31.6704L29.9541 26.7087C29.1944 26.2429 28.9603 25.2562 29.4314 24.5049Z" fill="#171717"/>
<path fill-rule="evenodd" clip-rule="evenodd" d="M34.4782 21.4246C34.9441 20.662 35.931 20.427 36.6825 20.8999L44.6873 25.9368C45.4388 26.4096 45.6703 27.4112 45.2044 28.1739C44.7385 28.9365 43.7516 29.1715 43.0001 28.6986L34.9952 23.6617C34.2437 23.1889 34.0122 22.1873 34.4782 21.4246Z" fill="#171717"/>
<path fill-rule="evenodd" clip-rule="evenodd" d="M39.4071 18.3323C39.8781 17.5697 40.8759 17.3347 41.6356 17.8076L49.7284 22.8445C50.4882 23.3173 50.7222 24.3189 50.2512 25.0816C49.7802 25.8443 48.7824 26.0792 48.0227 25.6063L39.9298 20.5694C39.1701 20.0966 38.936 19.095 39.4071 18.3323Z" fill="#171717"/>
<path fill-rule="evenodd" clip-rule="evenodd" d="M49.5933 12.022C50.0606 11.2615 51.0505 11.0273 51.8042 11.4988L59.8334 16.5209C60.5871 16.9924 60.8193 17.991 60.352 18.7515C59.8847 19.5119 58.8948 19.7462 58.141 19.2747L50.1119 14.2525C49.3581 13.7811 49.1259 12.7824 49.5933 12.022ZM44.4546 15.2621C44.9219 14.5016 45.9118 14.2674 46.6656 14.7389L54.6947 19.761C55.4485 20.2325 55.6807 21.2312 55.2133 21.9916C54.746 22.752 53.7561 22.9863 53.0024 22.5148L44.9732 17.4926C44.2195 17.0212 43.9873 16.0225 44.4546 15.2621Z" fill="#171717"/>
<path d="M167.493 57.7612L207.643 107.483V134.694L167.493 101.855V57.7612Z" fill="black"/>
<path d="M102.467 142.177V98.0832L26.2325 50.3403V94.4344L102.467 142.177Z" fill="black"/>
<path d="M102.467 142.177V98.0829L167.493 57.7612V101.855L102.467 142.177Z" fill="#444444"/>
<path d="M167.493 159.679V132.468L207.643 107.483V134.694L167.493 159.679Z" fill="black"/>
<path d="M167.493 57.7612L102.467 98.0829L167.493 132.468L207.643 107.483L167.493 57.7612Z" fill="black"/>
<path d="M102.467 98.083L167.493 132.468V159.679L102.467 142.177V98.083Z" fill="black"/>
<path d="M91.2593 10.0186L26.2324 50.3402L102.467 98.0831L167.493 57.7614L91.2593 10.0186Z" fill="black"/>
<path d="M91.5951 29.6846L61.8248 48.1404L77.8525 58.1536C86.3993 59.964 95.4167 56.1873 99.7335 53.4971C104.05 50.807 108.624 45.8296 107.623 39.6978L91.5951 29.6846Z" fill="white"/>
<path d="M123.75 49.7217L93.9688 68.2439L110.002 78.2932L139.783 59.7709L123.75 49.7217Z" fill="white"/>
<mask id="mask0" mask-type="alpha" maskUnits="userSpaceOnUse" x="102" y="58" width="106" height="87">
<path d="M167.493 144.342L102.467 126.84V98.0854L167.74 58.1348L207.396 107.114L167.493 144.342Z" fill="#C4C4C4"/>
</mask>
<g mask="url(#mask0)">
<path fill-rule="evenodd" clip-rule="evenodd" d="M174.453 66.0505L113.428 103.896L108.562 101.305L171.865 61.8408L174.453 66.0505Z" fill="white"/>
<path fill-rule="evenodd" clip-rule="evenodd" d="M183.936 73.719L125.127 110.065L120.263 107.492L181.348 69.5093L183.936 73.719Z" fill="white"/>
<path fill-rule="evenodd" clip-rule="evenodd" d="M191.695 81.8825L136.52 116.08L131.593 113.482L189.107 77.6729L191.695 81.8825Z" fill="white"/>
<path fill-rule="evenodd" clip-rule="evenodd" d="M197.976 90.6643L147.542 121.893L142.493 119.234L195.388 86.4546L197.976 90.6643Z" fill="white"/>
<path fill-rule="evenodd" clip-rule="evenodd" d="M208.937 98.3327L157.643 130.122L155.055 125.913L206.348 94.123L208.937 98.3327Z" fill="white"/>
<path fill-rule="evenodd" clip-rule="evenodd" d="M155.055 156.332L155.055 125.913L160.104 128.572L160.104 157.69L155.055 156.332Z" fill="white"/>
<path fill-rule="evenodd" clip-rule="evenodd" d="M142.493 155.735L142.493 119.233L147.542 121.027L147.542 157.205L142.493 155.735Z" fill="white"/>
<path fill-rule="evenodd" clip-rule="evenodd" d="M131.532 149.921L131.593 113.482L136.52 116.079L136.581 151.392L131.532 149.921Z" fill="white"/>
<path fill-rule="evenodd" clip-rule="evenodd" d="M120.263 147.372L120.263 107.492L125.127 110.064L125.127 148.795L120.263 147.372Z" fill="white"/>
<path fill-rule="evenodd" clip-rule="evenodd" d="M108.562 145.022L108.562 101.308L113.428 103.896L113.428 146.395L108.562 145.022Z" fill="white"/>
</g>
<path d="M164.872 65.6772L113.551 97.4539L182.519 123.068L195.943 114.719L164.872 65.6772Z" fill="black"/>
<path d="M199.293 120.295L230.057 139.518L208.663 168.279L173.159 145.64L199.293 120.295Z" fill="black"/>
<path d="M208.135 158.333C208.135 154.442 210.142 150.826 213.445 148.768L228.39 139.456C229.384 138.837 230.673 139.552 230.673 140.724V152.077C230.673 154.379 229.485 156.518 227.532 157.735L210.461 168.372C209.448 169.003 208.135 168.275 208.135 167.081V158.333Z" fill="black"/>
<path fill-rule="evenodd" clip-rule="evenodd" d="M771.531 63.213C772.281 59.8617 773.257 56.6802 774.458 53.6684C777.789 45.6535 782.251 38.9743 787.847 33.631C793.575 28.1541 800.236 24.0131 807.83 21.2078C815.557 18.4026 823.883 17 832.809 17C841.735 17 849.995 18.4026 857.588 21.2078C865.315 24.0131 872.043 28.1541 877.771 33.631C883.5 38.9743 887.963 45.6535 891.16 53.6684C892.412 56.6802 893.428 59.8617 894.209 63.213H857.253C853.542 52.2423 843.163 44.3451 830.939 44.3451C818.715 44.3451 808.336 52.2423 804.625 63.213H771.531ZM753.877 63.213C753.077 59.5282 752.01 56.0795 750.675 52.8669C747.344 44.852 742.615 38.2396 736.487 33.0299C730.492 27.6866 723.231 23.7459 714.705 21.2078C706.312 18.6698 696.92 17.4007 686.529 17.4007C681.466 17.4007 675.738 17.7347 669.343 18.4026C662.948 18.9369 656.887 20.1392 651.158 22.0093C648.494 22.9444 646.362 24.2135 644.763 25.8164C643.298 27.2859 642.565 29.4232 642.565 32.2284V63.213H677.336V46.455C679.335 46.1878 681.266 45.9874 683.131 45.8538C685.13 45.7202 687.061 45.6535 688.927 45.6535C698.252 45.6535 705.712 48.7259 711.308 54.8707C713.476 57.2001 715.224 59.9808 716.552 63.213H753.877ZM719.697 81.213H755.671C755.671 81.2486 755.671 81.2843 755.671 81.32C755.671 92.0066 754.072 101.357 750.875 109.372C747.677 117.254 743.081 123.933 737.086 129.41C731.224 134.753 724.164 138.761 715.904 141.432C707.644 144.104 698.518 145.44 688.527 145.44C686.262 145.44 683.664 145.373 680.733 145.239C677.803 145.106 674.738 144.839 671.541 144.438C668.477 144.037 665.346 143.503 662.149 142.835C659.085 142.3 656.221 141.499 653.556 140.43C646.229 137.625 642.565 132.749 642.565 125.803V81.213H677.336V116.185C678.802 116.452 680.6 116.719 682.732 116.987C684.863 117.12 686.862 117.187 688.727 117.187C693.256 117.187 697.386 116.519 701.116 115.183C704.98 113.847 708.244 111.777 710.908 108.972C713.706 106.166 715.837 102.56 717.303 98.1514C718.901 93.6096 719.701 88.1995 719.701 81.9211C719.701 81.6839 719.7 81.4478 719.697 81.213ZM568.229 63.213C571.419 49.8538 583.194 39.9394 597.232 39.9394C597.444 39.9394 597.655 39.9417 597.866 39.9462C596.815 36.715 595.798 33.6749 594.815 30.8258C593.349 26.6847 590.019 23.6791 584.823 21.809C579.761 19.8052 573.899 18.8034 567.238 18.8034C562.575 18.8034 557.912 19.4045 553.25 20.6067C548.72 21.809 545.323 23.078 543.058 24.4138C542.126 26.8183 540.793 30.2915 539.061 34.8333C537.463 39.3751 535.664 44.5848 533.666 50.4624C532.257 54.5133 530.781 58.7635 529.239 63.213H568.229ZM523.115 81.213H569.268C573.512 92.7947 584.431 101.038 597.232 101.038C603.605 101.038 609.512 98.9948 614.36 95.5136C615.995 101.292 617.607 107.047 619.194 112.779C621.859 122.263 624.19 130.679 626.188 138.026C624.59 139.896 622.192 141.365 618.995 142.434C615.797 143.636 612 144.237 607.604 144.237C604.407 144.237 601.676 143.97 599.411 143.436C597.279 142.902 595.481 142.1 594.015 141.031C592.683 139.963 591.551 138.56 590.618 136.824C589.819 135.087 589.086 133.083 588.42 130.812L584.823 116.987H548.653C547.588 120.994 546.522 125.135 545.456 129.41C544.39 133.684 543.325 137.825 542.259 141.833C540.394 142.501 538.395 143.035 536.264 143.436C534.265 143.97 531.801 144.237 528.87 144.237C522.076 144.237 517.013 143.102 513.683 140.831C510.485 138.427 508.887 135.154 508.887 131.013C508.887 129.143 509.153 127.272 509.686 125.402C510.219 123.532 510.818 121.328 511.485 118.79C512.417 115.183 513.683 110.708 515.281 105.365C517.013 100.022 518.878 94.2775 520.877 88.1327C521.605 85.8439 522.351 83.5373 523.115 81.213ZM499.162 63.213C500.977 57.3598 502.452 52.041 503.588 47.2564C505.053 41.646 505.786 37.3713 505.786 34.4325C505.786 29.3564 504.054 25.7497 500.591 23.6123C497.127 21.3414 492.93 20.206 488.001 20.206C484.537 20.206 481.407 20.6067 478.609 21.4082C475.945 22.2097 473.413 23.2116 471.015 24.4138C467.979 37.2955 464.789 50.2286 461.445 63.213H499.162ZM456.821 81.213H493.282C492.485 83.4881 491.658 85.7946 490.799 88.1327C488.134 95.7469 485.403 102.96 482.606 109.773C479.941 116.452 477.41 122.397 475.012 127.606C472.614 132.683 470.682 136.222 469.217 138.226C467.352 139.829 464.421 141.232 460.424 142.434C456.561 143.636 452.298 144.237 447.635 144.237C442.04 144.237 437.244 143.436 433.247 141.833C429.25 140.096 426.519 137.759 425.054 134.82C423.588 131.747 421.79 127.807 419.658 122.998C417.527 118.055 415.262 112.578 412.864 106.567C410.599 100.556 408.201 94.2107 405.67 87.5316C404.931 85.4317 404.198 83.3255 403.472 81.213H438.971C441.849 90.4256 444.804 99.9457 447.835 109.773H449.034C451.596 100.829 454.192 91.3091 456.821 81.213ZM433.496 63.213C430.815 54.0499 428.134 44.59 425.453 34.8333C423.988 29.2228 421.657 25.4157 418.459 23.412C415.395 21.2746 411.399 20.206 406.469 20.206C402.473 20.206 398.676 21.0075 395.079 22.6105C391.615 24.0799 388.951 25.7497 387.086 27.6198C388.551 33.4974 390.283 39.7758 392.281 46.455C393.925 51.9505 395.66 57.5365 397.484 63.213H433.496ZM367.167 63.213C366.352 60.4706 365.537 57.7567 364.721 55.071C361.924 45.8538 359.326 37.7721 356.928 30.8258C355.463 26.6847 352.132 23.6791 346.936 21.809C341.874 19.8052 336.012 18.8034 329.351 18.8034C324.688 18.8034 320.026 19.4045 315.363 20.6067C310.833 21.809 307.436 23.078 305.171 24.4138C304.239 26.8183 302.907 30.2915 301.175 34.8333C300.177 37.667 299.102 40.7608 297.949 44.1145C298.193 44.1084 298.437 44.1053 298.682 44.1053C311.125 44.1053 321.703 52.0888 325.574 63.213H367.167ZM372.402 81.213H325.813C322.155 92.7097 311.391 101.038 298.682 101.038C291.926 101.038 285.72 98.6845 280.838 94.7526C279.637 98.4501 278.489 101.988 277.395 105.365C275.796 110.708 274.53 115.183 273.598 118.79C272.932 121.328 272.332 123.532 271.799 125.402C271.266 127.272 271 129.143 271 131.013C271 135.154 272.599 138.427 275.796 140.831C279.127 143.102 284.189 144.237 290.983 144.237C293.914 144.237 296.379 143.97 298.377 143.436C300.509 143.035 302.507 142.501 304.372 141.833C305.438 137.825 306.504 133.684 307.569 129.41C308.635 125.135 309.701 120.994 310.767 116.987H346.936L350.533 130.812C351.2 133.083 351.932 135.087 352.732 136.824C353.664 138.56 354.796 139.963 356.129 141.031C357.594 142.1 359.393 142.902 361.524 143.436C363.789 143.97 366.52 144.237 369.717 144.237C374.114 144.237 377.91 143.636 381.108 142.434C384.305 141.365 386.703 139.896 388.302 138.026C386.303 130.679 383.972 122.263 381.308 112.779C378.643 103.161 375.912 93.476 373.114 83.7245C372.877 82.8849 372.639 82.0477 372.402 81.213ZM769.662 81.213H804.691C808.457 92.0839 818.787 99.8893 830.939 99.8893C843.091 99.8893 853.421 92.0839 857.187 81.213H896.156C896.156 81.2486 896.156 81.2843 896.156 81.32C896.156 91.7395 894.557 101.023 891.36 109.172C888.163 117.187 883.7 123.933 877.971 129.41C872.376 134.753 865.715 138.827 857.988 141.633C850.261 144.438 841.868 145.84 832.809 145.84C823.75 145.84 815.357 144.438 807.63 141.633C799.903 138.694 793.242 134.486 787.647 129.009C782.052 123.532 777.655 116.786 774.458 108.771C771.261 100.756 769.662 91.6059 769.662 81.32C769.662 81.2843 769.662 81.2486 769.662 81.213Z" fill="white"/>
</svg>
