<svg width="2000" height="870" xmlns="http://www.w3.org/2000/svg"><defs><linearGradient x1="50%" y1="0%" x2="50%" y2="100%" id="a"><stop stop-color="#F9FAFC" offset="0%"/><stop stop-color="#F9FAFC" stop-opacity="0" offset="100%"/></linearGradient><linearGradient x1="95.054%" y1="100%" x2="-70.857%" y2="282.468%" id="b"><stop stop-color="#7085FE" stop-opacity="0" offset="0%"/><stop stop-color="#7085FE" offset="100%"/></linearGradient><linearGradient x1="87.876%" y1="39.956%" x2="32.411%" y2="123.779%" id="c"><stop stop-color="#7085FE" stop-opacity="0" offset="0%"/><stop stop-color="#7085FE" stop-opacity=".32" offset="100%"/></linearGradient></defs><g fill="none" fill-rule="evenodd"><path fill="url(#a)" d="M0 158h2000v600H0z" transform="translate(0 -158)"/><g transform="translate(1446 -158)" stroke="url(#b)"><path d="M205.88 3.517c42.692 0 77.302 34.61 77.302 77.302 0 42.694-34.61 77.302-77.302 77.302-42.692 0-77.302-34.608-77.302-77.302 0-42.692 34.61-77.302 77.302-77.302z"/><path d="M210.567 6.826c42.692 0 77.3 34.61 77.3 77.302 0 42.692-34.608 77.302-77.3 77.302-42.694 0-77.302-34.61-77.302-77.302 0-42.692 34.608-77.302 77.302-77.302z"/><path d="M215.25 10.131c42.693 0 77.303 34.61 77.303 77.302 0 42.694-34.61 77.302-77.302 77.302-42.692 0-77.302-34.608-77.302-77.302 0-42.692 34.61-77.302 77.302-77.302z"/><path d="M219.936 13.44c42.694 0 77.302 34.608 77.302 77.302 0 42.692-34.608 77.302-77.302 77.302-42.692 0-77.302-34.61-77.302-77.302 0-42.694 34.61-77.302 77.302-77.302z"/><path d="M224.62 16.746c42.693 0 77.303 34.61 77.303 77.302 0 42.692-34.61 77.302-77.302 77.302-42.692 0-77.302-34.61-77.302-77.302 0-42.692 34.61-77.302 77.302-77.302z"/><path d="M229.306 20.053c42.692 0 77.302 34.61 77.302 77.302 0 42.694-34.61 77.302-77.302 77.302-42.692 0-77.302-34.608-77.302-77.302 0-42.692 34.61-77.302 77.302-77.302z"/><path d="M233.99 23.36c42.695 0 77.303 34.61 77.303 77.302 0 42.692-34.608 77.302-77.302 77.302-42.694 0-77.302-34.61-77.302-77.302 0-42.692 34.608-77.302 77.302-77.302z"/><path d="M238.676 26.667c42.694 0 77.302 34.61 77.302 77.302 0 42.694-34.608 77.302-77.302 77.302-42.692 0-77.302-34.608-77.302-77.302 0-42.692 34.61-77.302 77.302-77.302z"/><path d="M243.36 29.973c42.693 0 77.303 34.61 77.303 77.302 0 42.694-34.61 77.302-77.302 77.302-42.694 0-77.302-34.608-77.302-77.302 0-42.692 34.608-77.302 77.302-77.302z"/><path d="M248.046 33.282c42.692 0 77.302 34.61 77.302 77.302 0 42.692-34.61 77.302-77.302 77.302-42.692 0-77.302-34.61-77.302-77.302 0-42.692 34.61-77.302 77.302-77.302z"/><path d="M252.731 36.587c42.692 0 77.3 34.61 77.3 77.302 0 42.694-34.608 77.302-77.3 77.302-42.694 0-77.302-34.608-77.302-77.302 0-42.692 34.608-77.302 77.302-77.302z"/><path d="M257.417 39.896c42.694 0 77.302 34.608 77.302 77.302 0 42.692-34.608 77.302-77.302 77.302-42.692 0-77.302-34.61-77.302-77.302 0-42.694 34.61-77.302 77.302-77.302z"/><path d="M262.1 43.202c42.694 0 77.302 34.61 77.302 77.302 0 42.692-34.608 77.302-77.302 77.302-42.692 0-77.302-34.61-77.302-77.302 0-42.692 34.61-77.302 77.302-77.302z"/><path d="M266.784 46.51c42.694 0 77.302 34.61 77.302 77.301 0 42.694-34.608 77.302-77.302 77.302-42.692 0-77.3-34.608-77.3-77.302 0-42.692 34.608-77.302 77.3-77.302z"/><path d="M271.471 49.816c42.692 0 77.3 34.608 77.3 77.302 0 42.692-34.608 77.302-77.3 77.302-42.694 0-77.302-34.61-77.302-77.302 0-42.694 34.608-77.302 77.302-77.302z"/><path d="M276.155 53.124c42.694 0 77.3 34.61 77.3 77.302 0 42.694-34.606 77.302-77.3 77.302-42.694 0-77.302-34.608-77.302-77.302 0-42.692 34.608-77.302 77.302-77.302z"/><path d="M280.84 56.43c42.694 0 77.302 34.61 77.302 77.301 0 42.694-34.608 77.302-77.302 77.302-42.692 0-77.302-34.608-77.302-77.302 0-42.692 34.61-77.302 77.302-77.302z"/><path d="M285.524 59.738c42.694 0 77.302 34.61 77.302 77.302 0 42.692-34.608 77.302-77.302 77.302-42.692 0-77.302-34.61-77.302-77.302 0-42.692 34.61-77.302 77.302-77.302z"/><path d="M290.211 63.043c42.692 0 77.3 34.61 77.3 77.302 0 42.694-34.608 77.302-77.3 77.302-42.694 0-77.302-34.608-77.302-77.302 0-42.692 34.608-77.302 77.302-77.302z"/><path d="M294.895 66.351c42.692 0 77.3 34.61 77.3 77.302 0 42.694-34.608 77.302-77.3 77.302-42.694 0-77.302-34.608-77.302-77.302 0-42.692 34.608-77.302 77.302-77.302z"/><path d="M299.58 69.658c42.695 0 77.303 34.61 77.303 77.302 0 42.692-34.608 77.302-77.302 77.302-42.692 0-77.302-34.61-77.302-77.302 0-42.692 34.61-77.302 77.302-77.302z"/><path d="M304.264 72.965c42.694 0 77.302 34.61 77.302 77.302 0 42.694-34.608 77.302-77.302 77.302-42.694 0-77.302-34.608-77.302-77.302 0-42.692 34.608-77.302 77.302-77.302z"/><path d="M308.95 76.274c42.694 0 77.302 34.608 77.302 77.302 0 42.692-34.608 77.302-77.302 77.302-42.692 0-77.3-34.61-77.3-77.302 0-42.694 34.608-77.302 77.3-77.302z"/><path d="M313.635 79.58c42.692 0 77.3 34.61 77.3 77.302 0 42.694-34.608 77.302-77.3 77.302-42.694 0-77.302-34.608-77.302-77.302 0-42.692 34.608-77.302 77.302-77.302z"/><path d="M318.32 82.887c42.695 0 77.3 34.61 77.3 77.302 0 42.694-34.605 77.302-77.3 77.302-42.693 0-77.301-34.608-77.301-77.302 0-42.692 34.608-77.302 77.302-77.302z"/><path d="M323.004 86.194c42.694 0 77.302 34.61 77.302 77.302 0 42.692-34.608 77.302-77.302 77.302-42.694 0-77.302-34.61-77.302-77.302 0-42.692 34.608-77.302 77.302-77.302z"/><path d="M327.69 89.501c42.694 0 77.302 34.61 77.302 77.302 0 42.694-34.608 77.302-77.302 77.302-42.692 0-77.302-34.608-77.302-77.302 0-42.692 34.61-77.302 77.302-77.302z"/><path d="M332.374 92.807c42.694 0 77.302 34.61 77.302 77.302 0 42.694-34.608 77.302-77.302 77.302-42.692 0-77.3-34.608-77.3-77.302 0-42.692 34.608-77.302 77.3-77.302z"/><path d="M337.059 96.116c42.692 0 77.3 34.61 77.3 77.302 0 42.692-34.608 77.302-77.3 77.302-42.694 0-77.302-34.61-77.302-77.302 0-42.692 34.608-77.302 77.302-77.302z"/><path d="M341.745 99.421c42.694 0 77.302 34.61 77.302 77.302 0 42.694-34.608 77.302-77.302 77.302-42.694 0-77.302-34.608-77.302-77.302 0-42.692 34.608-77.302 77.302-77.302z"/><path d="M346.428 102.73c42.694 0 77.302 34.608 77.302 77.302 0 42.692-34.608 77.302-77.302 77.302-42.694 0-77.3-34.61-77.3-77.302 0-42.694 34.606-77.302 77.3-77.302z"/><path d="M351.114 106.036c42.694 0 77.302 34.61 77.302 77.302 0 42.692-34.608 77.302-77.302 77.302-42.692 0-77.3-34.61-77.3-77.302 0-42.692 34.608-77.302 77.3-77.302z"/><path d="M355.8 109.343c42.691 0 77.3 34.61 77.3 77.302 0 42.694-34.609 77.302-77.3 77.302-42.695 0-77.303-34.608-77.303-77.302 0-42.692 34.608-77.302 77.302-77.302z"/><path d="M360.485 112.65c42.692 0 77.3 34.61 77.3 77.302 0 42.692-34.608 77.302-77.3 77.302-42.694 0-77.302-34.61-77.302-77.302 0-42.692 34.608-77.302 77.302-77.302z"/><path d="M365.168 115.958c42.694 0 77.302 34.61 77.302 77.302 0 42.694-34.608 77.302-77.302 77.302-42.694 0-77.302-34.608-77.302-77.302 0-42.692 34.608-77.302 77.302-77.302z"/><path d="M369.854 119.263c42.694 0 77.302 34.61 77.302 77.302 0 42.694-34.608 77.302-77.302 77.302-42.692 0-77.3-34.608-77.3-77.302 0-42.692 34.608-77.302 77.3-77.302z"/><path d="M374.538 122.572c42.694 0 77.302 34.61 77.302 77.302 0 42.692-34.608 77.302-77.302 77.302-42.692 0-77.3-34.61-77.3-77.302 0-42.692 34.608-77.302 77.3-77.302z"/><path d="M379.225 125.877c42.692 0 77.3 34.61 77.3 77.302 0 42.694-34.608 77.302-77.3 77.302-42.694 0-77.302-34.608-77.302-77.302 0-42.692 34.608-77.302 77.302-77.302z"/><path d="M383.909 129.185c42.694 0 77.302 34.61 77.302 77.302 0 42.694-34.608 77.302-77.302 77.302-42.694 0-77.302-34.608-77.302-77.302 0-42.692 34.608-77.302 77.302-77.302z"/><path d="M388.594 132.492c42.694 0 77.302 34.61 77.302 77.302 0 42.692-34.608 77.302-77.302 77.302-42.694 0-77.3-34.61-77.3-77.302 0-42.692 34.606-77.302 77.3-77.302z"/><path d="M393.278 135.8c42.694 0 77.302 34.61 77.302 77.301 0 42.694-34.608 77.302-77.302 77.302-42.692 0-77.3-34.608-77.3-77.302 0-42.692 34.608-77.302 77.3-77.302z"/><path d="M397.963 139.106c42.692 0 77.3 34.608 77.3 77.302 0 42.692-34.608 77.302-77.3 77.302-42.694 0-77.302-34.61-77.302-77.302 0-42.694 34.608-77.302 77.302-77.302z"/><path d="M402.649 142.414c42.692 0 77.3 34.61 77.3 77.302 0 42.694-34.608 77.302-77.3 77.302-42.694 0-77.302-34.608-77.302-77.302 0-42.692 34.608-77.302 77.302-77.302z"/><path d="M407.333 145.72c42.694 0 77.302 34.61 77.302 77.301 0 42.694-34.608 77.302-77.302 77.302-42.694 0-77.302-34.608-77.302-77.302 0-42.692 34.608-77.302 77.302-77.302z"/><path d="M412.018 149.028c42.694 0 77.302 34.61 77.302 77.302 0 42.692-34.608 77.302-77.302 77.302-42.692 0-77.3-34.61-77.3-77.302 0-42.692 34.608-77.302 77.3-77.302z"/><path d="M416.702 152.334c42.694 0 77.302 34.61 77.302 77.302 0 42.694-34.608 77.302-77.302 77.302-42.692 0-77.3-34.608-77.3-77.302 0-42.692 34.608-77.302 77.3-77.302z"/><path d="M421.39 155.641c42.691 0 77.3 34.61 77.3 77.302 0 42.694-34.609 77.302-77.3 77.302-42.695 0-77.303-34.608-77.303-77.302 0-42.692 34.608-77.302 77.302-77.302z"/><path d="M426.073 158.948c42.694 0 77.3 34.61 77.3 77.302 0 42.692-34.606 77.302-77.3 77.302-42.694 0-77.302-34.61-77.302-77.302 0-42.692 34.608-77.302 77.302-77.302z"/><path d="M430.758 162.255c42.694 0 77.302 34.61 77.302 77.302 0 42.694-34.608 77.302-77.302 77.302-42.694 0-77.302-34.608-77.302-77.302 0-42.692 34.608-77.302 77.302-77.302z"/><path d="M435.442 165.561c42.694 0 77.302 34.61 77.302 77.302 0 42.694-34.608 77.302-77.302 77.302-42.692 0-77.3-34.608-77.3-77.302 0-42.692 34.608-77.302 77.3-77.302z"/><path d="M440.13 168.87c42.691 0 77.3 34.61 77.3 77.302 0 42.692-34.609 77.302-77.3 77.302-42.695 0-77.303-34.61-77.303-77.302 0-42.692 34.608-77.302 77.302-77.302z"/><path d="M433.018 170.963c42.694 0 77.302 34.61 77.302 77.302 0 42.694-34.608 77.302-77.302 77.302-42.692 0-77.3-34.608-77.3-77.302 0-42.692 34.608-77.302 77.3-77.302z"/><path d="M425.909 173.057c42.694 0 77.302 34.61 77.302 77.302 0 42.694-34.608 77.302-77.302 77.302-42.694 0-77.302-34.608-77.302-77.302 0-42.692 34.608-77.302 77.302-77.302z"/><path d="M418.8 175.152c42.691 0 77.3 34.61 77.3 77.302 0 42.692-34.609 77.302-77.3 77.302-42.695 0-77.303-34.61-77.303-77.302 0-42.692 34.608-77.302 77.302-77.302z"/><path d="M411.688 177.248c42.694 0 77.302 34.61 77.302 77.302 0 42.694-34.608 77.302-77.302 77.302-42.692 0-77.3-34.608-77.3-77.302 0-42.692 34.608-77.302 77.3-77.302z"/><path d="M404.577 179.341c42.694 0 77.302 34.61 77.302 77.302 0 42.692-34.608 77.302-77.302 77.302-42.694 0-77.302-34.61-77.302-77.302 0-42.692 34.608-77.302 77.302-77.302z"/><path d="M397.467 181.435c42.692 0 77.3 34.61 77.3 77.302 0 42.694-34.608 77.302-77.3 77.302-42.694 0-77.302-34.608-77.302-77.302 0-42.692 34.608-77.302 77.302-77.302z"/><path d="M390.356 183.53c42.694 0 77.302 34.61 77.302 77.302 0 42.694-34.608 77.302-77.302 77.302-42.692 0-77.3-34.608-77.3-77.302 0-42.692 34.608-77.302 77.3-77.302z"/><path d="M383.247 185.624c42.694 0 77.302 34.61 77.302 77.302 0 42.694-34.608 77.302-77.302 77.302-42.694 0-77.302-34.608-77.302-77.302 0-42.692 34.608-77.302 77.302-77.302z"/><path d="M376.137 187.72c42.692 0 77.3 34.61 77.3 77.301 0 42.694-34.608 77.302-77.3 77.302-42.694 0-77.302-34.608-77.302-77.302 0-42.692 34.608-77.302 77.302-77.302z"/><path d="M369.026 189.814c42.694 0 77.302 34.608 77.302 77.302 0 42.692-34.608 77.302-77.302 77.302-42.692 0-77.3-34.61-77.3-77.302 0-42.694 34.608-77.302 77.3-77.302z"/><path d="M361.917 191.908c42.694 0 77.302 34.61 77.302 77.302 0 42.692-34.608 77.302-77.302 77.302-42.694 0-77.302-34.61-77.302-77.302 0-42.692 34.608-77.302 77.302-77.302z"/><path d="M354.807 194.001c42.692 0 77.3 34.61 77.3 77.302 0 42.692-34.608 77.302-77.3 77.302-42.694 0-77.302-34.61-77.302-77.302 0-42.692 34.608-77.302 77.302-77.302z"/><path d="M347.696 196.095c42.694 0 77.302 34.61 77.302 77.302 0 42.692-34.608 77.302-77.302 77.302-42.692 0-77.3-34.61-77.3-77.302 0-42.692 34.608-77.302 77.3-77.302z"/><path d="M340.586 198.192c42.694 0 77.302 34.608 77.302 77.302 0 42.694-34.608 77.302-77.302 77.302-42.694 0-77.302-34.608-77.302-77.302 0-42.694 34.608-77.302 77.302-77.302z"/><path d="M333.477 200.286c42.692 0 77.3 34.61 77.3 77.302 0 42.694-34.608 77.302-77.3 77.302-42.694 0-77.302-34.608-77.302-77.302 0-42.692 34.608-77.302 77.302-77.302z"/><path d="M326.366 202.38c42.694 0 77.302 34.61 77.302 77.301 0 42.694-34.608 77.302-77.302 77.302-42.692 0-77.3-34.608-77.3-77.302 0-42.692 34.608-77.302 77.3-77.302z"/><path d="M319.256 204.473c42.694 0 77.302 34.61 77.302 77.302 0 42.694-34.608 77.302-77.302 77.302-42.694 0-77.302-34.608-77.302-77.302 0-42.692 34.608-77.302 77.302-77.302z"/><path d="M312.147 206.57c42.692 0 77.3 34.61 77.3 77.302 0 42.692-34.608 77.302-77.3 77.302-42.694 0-77.302-34.61-77.302-77.302 0-42.692 34.608-77.302 77.302-77.302z"/><path d="M305.036 208.664c42.694 0 77.302 34.61 77.302 77.302 0 42.692-34.608 77.302-77.302 77.302-42.692 0-77.3-34.61-77.3-77.302 0-42.692 34.608-77.302 77.3-77.302z"/><path d="M297.926 210.757c42.694 0 77.302 34.61 77.302 77.302 0 42.692-34.608 77.302-77.302 77.302-42.692 0-77.302-34.61-77.302-77.302 0-42.692 34.61-77.302 77.302-77.302z"/><path d="M290.817 212.851c42.692 0 77.3 34.61 77.3 77.302 0 42.694-34.608 77.302-77.3 77.302-42.694 0-77.302-34.608-77.302-77.302 0-42.692 34.608-77.302 77.302-77.302z"/><path d="M283.706 214.946c42.694 0 77.302 34.61 77.302 77.302 0 42.694-34.608 77.302-77.302 77.302-42.692 0-77.3-34.608-77.3-77.302 0-42.692 34.608-77.302 77.3-77.302z"/><path d="M276.596 217.042c42.694 0 77.302 34.61 77.302 77.302 0 42.694-34.608 77.302-77.302 77.302-42.692 0-77.302-34.608-77.302-77.302 0-42.692 34.61-77.302 77.302-77.302z"/><path d="M269.487 219.135c42.694 0 77.3 34.61 77.3 77.302 0 42.694-34.606 77.302-77.3 77.302-42.694 0-77.302-34.608-77.302-77.302 0-42.692 34.608-77.302 77.302-77.302z"/><path d="M262.377 221.23c42.692 0 77.3 34.608 77.3 77.3 0 42.694-34.608 77.304-77.3 77.304-42.694 0-77.302-34.61-77.302-77.304 0-42.692 34.608-77.3 77.302-77.3z"/><path d="M255.266 223.324c42.694 0 77.302 34.61 77.302 77.302 0 42.692-34.608 77.302-77.302 77.302-42.692 0-77.302-34.61-77.302-77.302 0-42.692 34.61-77.302 77.302-77.302z"/><path d="M248.157 225.42c42.694 0 77.3 34.61 77.3 77.301 0 42.692-34.606 77.302-77.3 77.302-42.694 0-77.302-34.61-77.302-77.302 0-42.692 34.608-77.302 77.302-77.302z"/><path d="M241.046 227.513c42.692 0 77.302 34.61 77.302 77.302 0 42.692-34.61 77.302-77.302 77.302-42.692 0-77.302-34.61-77.302-77.302 0-42.692 34.61-77.302 77.302-77.302z"/><path d="M233.936 229.608c42.694 0 77.302 34.608 77.302 77.302 0 42.694-34.608 77.302-77.302 77.302-42.692 0-77.302-34.608-77.302-77.302 0-42.694 34.61-77.302 77.302-77.302z"/><path d="M226.827 231.702c42.694 0 77.302 34.61 77.302 77.302 0 42.694-34.608 77.302-77.302 77.302-42.694 0-77.302-34.608-77.302-77.302 0-42.692 34.608-77.302 77.302-77.302z"/><path d="M219.716 233.795c42.692 0 77.302 34.61 77.302 77.302 0 42.694-34.61 77.302-77.302 77.302-42.692 0-77.302-34.608-77.302-77.302 0-42.692 34.61-77.302 77.302-77.302z"/><path d="M212.607 235.891c42.692 0 77.302 34.61 77.302 77.302 0 42.694-34.61 77.302-77.302 77.302-42.694 0-77.302-34.608-77.302-77.302 0-42.692 34.608-77.302 77.302-77.302z"/><path d="M205.497 237.986c42.692 0 77.302 34.61 77.302 77.3 0 42.694-34.61 77.304-77.302 77.304-42.692 0-77.302-34.61-77.302-77.304 0-42.69 34.61-77.3 77.302-77.3z"/><path d="M198.384 240.08c42.694 0 77.302 34.61 77.302 77.302 0 42.692-34.608 77.302-77.302 77.302-42.692 0-77.302-34.61-77.302-77.302 0-42.692 34.61-77.302 77.302-77.302z"/><path d="M191.275 242.173c42.692 0 77.302 34.61 77.302 77.302 0 42.692-34.61 77.302-77.302 77.302-42.694 0-77.302-34.61-77.302-77.302 0-42.692 34.608-77.302 77.302-77.302z"/><path d="M184.165 244.269c42.692 0 77.302 34.61 77.302 77.302 0 42.694-34.61 77.302-77.302 77.302-42.692 0-77.302-34.608-77.302-77.302 0-42.692 34.61-77.302 77.302-77.302z"/><path d="M177.054 246.364c42.694 0 77.302 34.61 77.302 77.302 0 42.694-34.608 77.302-77.302 77.302-42.692 0-77.302-34.608-77.302-77.302 0-42.692 34.61-77.302 77.302-77.302z"/><path d="M169.945 248.458c42.692 0 77.302 34.61 77.302 77.302 0 42.694-34.61 77.302-77.302 77.302-42.694 0-77.302-34.608-77.302-77.302 0-42.692 34.608-77.302 77.302-77.302z"/><path d="M162.835 250.551c42.692 0 77.302 34.61 77.302 77.302 0 42.694-34.61 77.302-77.302 77.302-42.692 0-77.302-34.608-77.302-77.302 0-42.692 34.61-77.302 77.302-77.302z"/><path d="M155.724 252.646c42.694 0 77.302 34.608 77.302 77.3 0 42.694-34.608 77.304-77.302 77.304-42.692 0-77.302-34.61-77.302-77.304 0-42.692 34.61-77.3 77.302-77.3z"/><path d="M148.615 254.742c42.692 0 77.302 34.61 77.302 77.302 0 42.692-34.61 77.302-77.302 77.302-42.694 0-77.302-34.61-77.302-77.302 0-42.692 34.608-77.302 77.302-77.302z"/><path d="M141.504 256.835c42.692 0 77.302 34.61 77.302 77.302 0 42.692-34.61 77.302-77.302 77.302-42.692 0-77.302-34.61-77.302-77.302 0-42.692 34.61-77.302 77.302-77.302z"/><path d="M134.394 258.93c42.694 0 77.302 34.61 77.302 77.301 0 42.692-34.608 77.302-77.302 77.302-42.692 0-77.302-34.61-77.302-77.302 0-42.692 34.61-77.302 77.302-77.302z"/><path d="M127.285 261.024c42.692 0 77.302 34.608 77.302 77.302 0 42.694-34.61 77.302-77.302 77.302-42.694 0-77.302-34.608-77.302-77.302 0-42.694 34.608-77.302 77.302-77.302z"/><path d="M120.174 263.12c42.694 0 77.302 34.61 77.302 77.302 0 42.694-34.608 77.302-77.302 77.302-42.692 0-77.302-34.608-77.302-77.302 0-42.692 34.61-77.302 77.302-77.302z"/><path d="M113.065 265.213c42.692 0 77.302 34.61 77.302 77.302 0 42.694-34.61 77.302-77.302 77.302-42.694 0-77.302-34.608-77.302-77.302 0-42.692 34.608-77.302 77.302-77.302z"/><path d="M105.955 267.307c42.692 0 77.302 34.61 77.302 77.302 0 42.694-34.61 77.302-77.302 77.302-42.692 0-77.302-34.608-77.302-77.302 0-42.692 34.61-77.302 77.302-77.302z"/><path d="M98.844 269.402c42.694 0 77.302 34.61 77.302 77.3 0 42.694-34.608 77.304-77.302 77.304-42.692 0-77.302-34.61-77.302-77.304 0-42.69 34.61-77.3 77.302-77.3z"/><path d="M91.735 271.496c42.692 0 77.302 34.61 77.302 77.302 0 42.692-34.61 77.302-77.302 77.302-42.694 0-77.302-34.61-77.302-77.302 0-42.692 34.608-77.302 77.302-77.302z"/><path d="M84.625 273.591c42.692 0 77.302 34.61 77.302 77.302 0 42.692-34.61 77.302-77.302 77.302-42.692 0-77.302-34.61-77.302-77.302 0-42.692 34.61-77.302 77.302-77.302z"/><path d="M77.514 275.685c42.694 0 77.302 34.61 77.302 77.302 0 42.694-34.608 77.302-77.302 77.302-42.692 0-77.302-34.608-77.302-77.302 0-42.692 34.61-77.302 77.302-77.302z"/><path d="M82.359 278.866c42.692 0 77.302 34.608 77.302 77.302 0 42.694-34.61 77.302-77.302 77.302-42.694 0-77.302-34.608-77.302-77.302 0-42.694 34.608-77.302 77.302-77.302z"/><path d="M87.205 282.045c42.692 0 77.302 34.61 77.302 77.302 0 42.694-34.61 77.302-77.302 77.302-42.692 0-77.302-34.608-77.302-77.302 0-42.692 34.61-77.302 77.302-77.302z"/><path d="M92.05 285.225c42.694 0 77.302 34.61 77.302 77.302 0 42.694-34.608 77.302-77.302 77.302-42.692 0-77.302-34.608-77.302-77.302 0-42.692 34.61-77.302 77.302-77.302z"/><path d="M96.894 288.408c42.694 0 77.302 34.61 77.302 77.302 0 42.692-34.608 77.302-77.302 77.302-42.692 0-77.302-34.61-77.302-77.302 0-42.692 34.61-77.302 77.302-77.302z"/><path d="M101.74 291.587c42.693 0 77.303 34.61 77.303 77.302 0 42.692-34.61 77.302-77.302 77.302-42.694 0-77.302-34.61-77.302-77.302 0-42.692 34.608-77.302 77.302-77.302z"/><path d="M106.585 294.767c42.692 0 77.302 34.61 77.302 77.302 0 42.694-34.61 77.302-77.302 77.302-42.692 0-77.302-34.608-77.302-77.302 0-42.692 34.61-77.302 77.302-77.302z"/><path d="M111.43 297.948c42.694 0 77.302 34.608 77.302 77.302 0 42.694-34.608 77.302-77.302 77.302-42.692 0-77.302-34.608-77.302-77.302 0-42.694 34.61-77.302 77.302-77.302z"/><path d="M116.275 301.128c42.692 0 77.302 34.608 77.302 77.3 0 42.694-34.61 77.304-77.302 77.304-42.694 0-77.302-34.61-77.302-77.304 0-42.692 34.608-77.3 77.302-77.3z"/><path d="M121.12 304.31c42.693 0 77.303 34.61 77.303 77.3 0 42.694-34.61 77.304-77.302 77.304-42.692 0-77.302-34.61-77.302-77.304 0-42.69 34.61-77.3 77.302-77.3z"/><path d="M125.964 307.49c42.692 0 77.302 34.61 77.302 77.302 0 42.692-34.61 77.302-77.302 77.302-42.692 0-77.302-34.61-77.302-77.302 0-42.692 34.61-77.302 77.302-77.302z"/><path d="M130.81 310.67c42.694 0 77.302 34.61 77.302 77.301 0 42.692-34.608 77.302-77.302 77.302-42.692 0-77.302-34.61-77.302-77.302 0-42.692 34.61-77.302 77.302-77.302z"/><path d="M135.657 313.85c42.692 0 77.302 34.61 77.302 77.301 0 42.692-34.61 77.302-77.302 77.302-42.694 0-77.302-34.61-77.302-77.302 0-42.692 34.608-77.302 77.302-77.302z"/><path d="M140.5 317.03c42.693 0 77.303 34.61 77.303 77.303 0 42.694-34.61 77.304-77.302 77.304-42.692 0-77.302-34.61-77.302-77.304 0-42.692 34.61-77.302 77.302-77.302z"/><path d="M145.346 320.212c42.694 0 77.302 34.608 77.302 77.3 0 42.694-34.608 77.304-77.302 77.304-42.692 0-77.302-34.61-77.302-77.304 0-42.692 34.61-77.3 77.302-77.3z"/><path d="M150.191 323.392c42.692 0 77.302 34.61 77.302 77.3 0 42.694-34.61 77.304-77.302 77.304-42.694 0-77.302-34.61-77.302-77.304 0-42.69 34.608-77.3 77.302-77.3z"/><path d="M155.037 326.572c42.692 0 77.302 34.61 77.302 77.3 0 42.694-34.61 77.304-77.302 77.304-42.692 0-77.302-34.61-77.302-77.304 0-42.69 34.61-77.3 77.302-77.3z"/><path d="M159.88 329.751c42.692 0 77.302 34.61 77.302 77.302 0 42.692-34.61 77.302-77.302 77.302-42.692 0-77.302-34.61-77.302-77.302 0-42.692 34.61-77.302 77.302-77.302z"/><path d="M164.726 332.933c42.694 0 77.302 34.61 77.302 77.302 0 42.694-34.608 77.302-77.302 77.302-42.692 0-77.302-34.608-77.302-77.302 0-42.692 34.61-77.302 77.302-77.302z"/><path d="M169.57 336.113c42.693 0 77.303 34.61 77.303 77.302 0 42.694-34.61 77.304-77.302 77.304-42.694 0-77.302-34.61-77.302-77.304 0-42.692 34.608-77.302 77.302-77.302z"/><path d="M174.417 339.294c42.692 0 77.302 34.608 77.302 77.3 0 42.694-34.61 77.304-77.302 77.304-42.692 0-77.302-34.61-77.302-77.304 0-42.692 34.61-77.3 77.302-77.3z"/><path d="M179.262 342.474c42.694 0 77.302 34.61 77.302 77.3 0 42.694-34.608 77.304-77.302 77.304-42.692 0-77.302-34.61-77.302-77.304 0-42.69 34.61-77.3 77.302-77.3z"/><path d="M184.107 345.654c42.692 0 77.302 34.61 77.302 77.3 0 42.694-34.61 77.304-77.302 77.304-42.694 0-77.302-34.61-77.302-77.304 0-42.69 34.608-77.3 77.302-77.3z"/><path d="M188.953 348.835c42.692 0 77.302 34.61 77.302 77.302 0 42.692-34.61 77.302-77.302 77.302-42.692 0-77.302-34.61-77.302-77.302 0-42.692 34.61-77.302 77.302-77.302z"/><path d="M193.796 352.015c42.692 0 77.302 34.61 77.302 77.302 0 42.692-34.61 77.302-77.302 77.302-42.692 0-77.302-34.61-77.302-77.302 0-42.692 34.61-77.302 77.302-77.302z"/><path d="M198.642 355.195c42.694 0 77.302 34.61 77.302 77.302 0 42.694-34.608 77.304-77.302 77.304-42.692 0-77.302-34.61-77.302-77.304 0-42.692 34.61-77.302 77.302-77.302z"/><path d="M203.487 358.376c42.692 0 77.3 34.608 77.3 77.3 0 42.694-34.608 77.304-77.3 77.304-42.694 0-77.302-34.61-77.302-77.304 0-42.692 34.608-77.3 77.302-77.3z"/><path d="M208.333 361.556c42.692 0 77.302 34.61 77.302 77.3 0 42.694-34.61 77.304-77.302 77.304-42.692 0-77.302-34.61-77.302-77.304 0-42.69 34.61-77.3 77.302-77.3z"/><path d="M213.176 364.738c42.694 0 77.302 34.61 77.302 77.3 0 42.694-34.608 77.304-77.302 77.304-42.692 0-77.302-34.61-77.302-77.304 0-42.69 34.61-77.3 77.302-77.3z"/><path d="M218.023 367.917c42.692 0 77.302 34.61 77.302 77.302 0 42.692-34.61 77.302-77.302 77.302-42.694 0-77.302-34.61-77.302-77.302 0-42.692 34.608-77.302 77.302-77.302z"/><path d="M222.869 371.097c42.692 0 77.302 34.61 77.302 77.302 0 42.692-34.61 77.302-77.302 77.302-42.694 0-77.302-34.61-77.302-77.302 0-42.692 34.608-77.302 77.302-77.302z"/><path d="M227.712 374.277c42.692 0 77.302 34.61 77.302 77.302 0 42.694-34.61 77.304-77.302 77.304-42.692 0-77.302-34.61-77.302-77.304 0-42.692 34.61-77.302 77.302-77.302z"/><path d="M232.558 377.457c42.692 0 77.302 34.61 77.302 77.302 0 42.694-34.61 77.304-77.302 77.304-42.692 0-77.302-34.61-77.302-77.304 0-42.692 34.61-77.302 77.302-77.302z"/><path d="M237.403 380.64c42.692 0 77.3 34.61 77.3 77.3 0 42.694-34.608 77.304-77.3 77.304-42.694 0-77.302-34.61-77.302-77.304 0-42.69 34.608-77.3 77.302-77.3z"/><path d="M242.249 383.82c42.694 0 77.302 34.61 77.302 77.3 0 42.694-34.608 77.304-77.302 77.304-42.692 0-77.302-34.61-77.302-77.304 0-42.69 34.61-77.3 77.302-77.3z"/><path d="M247.092 387c42.694 0 77.302 34.61 77.302 77.302 0 42.692-34.608 77.302-77.302 77.302-42.692 0-77.302-34.61-77.302-77.302 0-42.692 34.61-77.302 77.302-77.302z"/><path d="M251.939 390.18c42.692 0 77.302 34.61 77.302 77.301 0 42.692-34.61 77.302-77.302 77.302-42.694 0-77.302-34.61-77.302-77.302 0-42.692 34.608-77.302 77.302-77.302z"/><path d="M256.783 393.359c42.692 0 77.302 34.61 77.302 77.302 0 42.694-34.61 77.304-77.302 77.304-42.694 0-77.302-34.61-77.302-77.304 0-42.692 34.608-77.302 77.302-77.302z"/><path d="M261.63 396.542c42.691 0 77.3 34.608 77.3 77.3 0 42.694-34.609 77.304-77.3 77.304-42.695 0-77.303-34.61-77.303-77.304 0-42.692 34.608-77.3 77.302-77.3z"/><path d="M266.475 399.722c42.692 0 77.3 34.61 77.3 77.3 0 42.694-34.608 77.304-77.3 77.304-42.694 0-77.302-34.61-77.302-77.304 0-42.69 34.608-77.3 77.302-77.3z"/><path d="M271.319 402.902c42.692 0 77.3 34.61 77.3 77.3 0 42.694-34.608 77.304-77.3 77.304-42.694 0-77.302-34.61-77.302-77.304 0-42.69 34.608-77.3 77.302-77.3z"/><path d="M276.165 406.082c42.694 0 77.302 34.61 77.302 77.302 0 42.692-34.608 77.302-77.302 77.302-42.692 0-77.302-34.61-77.302-77.302 0-42.692 34.61-77.302 77.302-77.302z"/><path d="M281.008 409.261c42.694 0 77.302 34.61 77.302 77.302 0 42.692-34.608 77.302-77.302 77.302-42.692 0-77.302-34.61-77.302-77.302 0-42.692 34.61-77.302 77.302-77.302z"/><path d="M285.854 412.443c42.694 0 77.302 34.61 77.302 77.302 0 42.694-34.608 77.304-77.302 77.304-42.692 0-77.302-34.61-77.302-77.304 0-42.692 34.61-77.302 77.302-77.302z"/><path d="M290.698 415.623c42.694 0 77.302 34.61 77.302 77.302 0 42.694-34.608 77.304-77.302 77.304-42.692 0-77.3-34.61-77.3-77.304 0-42.692 34.608-77.302 77.3-77.302z"/><path d="M295.545 418.804c42.692 0 77.3 34.61 77.3 77.3 0 42.694-34.608 77.304-77.3 77.304-42.694 0-77.302-34.61-77.302-77.304 0-42.69 34.608-77.3 77.302-77.3z"/><path d="M300.39 421.984c42.691 0 77.3 34.61 77.3 77.3 0 42.694-34.609 77.304-77.3 77.304-42.695 0-77.303-34.61-77.303-77.304 0-42.69 34.608-77.3 77.302-77.3z"/><path d="M305.235 425.166c42.692 0 77.3 34.61 77.3 77.302 0 42.692-34.608 77.302-77.3 77.302-42.694 0-77.302-34.61-77.302-77.302 0-42.692 34.608-77.302 77.302-77.302z"/><path d="M310.08 428.345c42.695 0 77.303 34.61 77.303 77.302 0 42.692-34.608 77.302-77.302 77.302-42.694 0-77.302-34.61-77.302-77.302 0-42.692 34.608-77.302 77.302-77.302z"/><path d="M314.924 431.525c42.694 0 77.302 34.61 77.302 77.302 0 42.694-34.608 77.304-77.302 77.304-42.694 0-77.302-34.61-77.302-77.304 0-42.692 34.608-77.302 77.302-77.302z"/><path d="M319.77 434.705c42.694 0 77.302 34.61 77.302 77.302 0 42.694-34.608 77.304-77.302 77.304-42.692 0-77.302-34.61-77.302-77.304 0-42.692 34.61-77.302 77.302-77.302z"/><path d="M324.614 437.886c42.694 0 77.302 34.61 77.302 77.3 0 42.694-34.608 77.304-77.302 77.304-42.692 0-77.3-34.61-77.3-77.304 0-42.69 34.608-77.3 77.3-77.3z"/></g><g transform="translate(252 686)" stroke="url(#c)"><path d="M77.302 0c42.692 0 77.302 34.61 77.302 77.302 0 42.692-34.61 77.302-77.302 77.302C34.608 154.604 0 119.994 0 77.302 0 34.61 34.608 0 77.302 0z"/><path d="M82.146 3.18c42.692 0 77.302 34.61 77.302 77.302 0 42.694-34.61 77.304-77.302 77.304-42.694 0-77.302-34.61-77.302-77.304C4.844 37.79 39.452 3.18 82.146 3.18z"/><path d="M86.992 6.363c42.692 0 77.3 34.608 77.3 77.3 0 42.694-34.608 77.304-77.3 77.304-42.694 0-77.302-34.61-77.302-77.304 0-42.692 34.608-77.3 77.302-77.3z"/><path d="M91.838 9.543c42.692 0 77.3 34.61 77.3 77.3 0 42.694-34.608 77.304-77.3 77.304-42.694 0-77.302-34.61-77.302-77.304 0-42.69 34.608-77.3 77.302-77.3z"/><path d="M96.682 12.723c42.692 0 77.3 34.61 77.3 77.3 0 42.694-34.608 77.304-77.3 77.304-42.694 0-77.302-34.61-77.302-77.304 0-42.69 34.608-77.3 77.302-77.3z"/><path d="M101.528 15.902c42.694 0 77.302 34.61 77.302 77.302 0 42.692-34.608 77.302-77.302 77.302-42.692 0-77.302-34.61-77.302-77.302 0-42.692 34.61-77.302 77.302-77.302z"/><path d="M106.371 19.082c42.694 0 77.302 34.61 77.302 77.302 0 42.692-34.608 77.302-77.302 77.302-42.692 0-77.302-34.61-77.302-77.302 0-42.692 34.61-77.302 77.302-77.302z"/><path d="M111.217 22.264c42.694 0 77.302 34.61 77.302 77.302 0 42.694-34.608 77.304-77.302 77.304-42.692 0-77.302-34.61-77.302-77.304 0-42.692 34.61-77.302 77.302-77.302z"/><path d="M116.06 25.443c42.695 0 77.303 34.61 77.303 77.302 0 42.694-34.608 77.304-77.302 77.304-42.692 0-77.3-34.61-77.3-77.304 0-42.692 34.608-77.302 77.3-77.302z"/><path d="M120.908 28.625c42.692 0 77.3 34.61 77.3 77.3 0 42.694-34.608 77.304-77.3 77.304-42.694 0-77.302-34.61-77.302-77.304 0-42.69 34.608-77.3 77.302-77.3z"/></g></g></svg>