<?xml version="1.0" encoding="UTF-8" standalone="no"?>
<!DOCTYPE svg PUBLIC "-//W3C//DTD SVG 1.1//EN" "http://www.w3.org/Graphics/SVG/1.1/DTD/svg11.dtd">
<svg width="100%" height="100%" viewBox="0 0 250 114" version="1.1" xmlns="http://www.w3.org/2000/svg" xmlns:xlink="http://www.w3.org/1999/xlink" xml:space="preserve" xmlns:serif="http://www.serif.com/" style="fill-rule:evenodd;clip-rule:evenodd;stroke-linejoin:round;stroke-miterlimit:2;">
    <g>
        <path d="M46.4,24.6C45.7,24.5 45.1,24.5 44.4,24.5C39.5,24.5 34.7,26.5 30.4,30.3C28.4,32.1 26.5,34.3 24.8,36.7C24.5,27.4 24,17.5 23,7.4L10.5,7.4C13.2,35.8 12.9,60.6 12.4,82.4L12.4,82.5L24.9,82.5C25.3,60.7 30.7,46.7 38.8,39.5C41,37.6 43.1,36.7 45,36.9C54.9,38 53.3,68.8 52.6,82.5L65.1,82.5C65.6,72.4 66.2,60.1 64.8,49.5C62.8,34 56.5,25.7 46.4,24.6Z" style="fill:white;fill-rule:nonzero;"/>
        <path d="M174.2,26.5C171.2,25.1 168,24.4 164.8,24.4C161.5,24.4 158.2,25.1 154.9,26.6C145.9,30.7 138.4,40.1 134.9,51.8C129.5,69.8 129.8,91.4 129.9,105.7L129.9,106.8L142.4,106.8L142.4,105.6C142.3,92.1 142,71.6 146.9,55.4C149.3,47.2 154.4,40.6 160.1,38C163.2,36.6 166.2,36.6 168.9,37.8C171.8,39.2 173.3,42.1 173.9,44.4C175.5,49.6 174.7,55.9 171.8,60.4C167.3,67.7 161.1,70.3 149.7,70L149.7,82.4C161.7,82.5 174.8,79.7 182.5,66.9C187.1,59.3 188.5,49.3 185.9,40.7C184,34.2 179.8,29.1 174.2,26.5Z" style="fill:white;fill-rule:nonzero;"/>
        <path d="M99.4,24.1C83.3,24.1 70.3,37.5 70.3,54C70.3,70.5 83.4,83.9 99.4,83.9C115.5,83.9 128.5,70.5 128.5,54C128.5,37.5 115.4,24.1 99.4,24.1ZM99.4,71.4C90.2,71.4 82.8,63.6 82.8,54C82.8,44.4 90.2,36.6 99.4,36.6C108.6,36.6 116,44.4 116,54C116,63.6 108.5,71.4 99.4,71.4Z" style="fill:white;fill-rule:nonzero;"/>
        <path d="M220.5,24.1C215.9,24.1 211.7,25.8 208,29.2C206.6,30.5 205.3,32 204.1,33.6C203.8,31 203.5,28.3 203.2,25.5L190.6,25.5C193.6,47.8 193.3,66.2 193.1,77.5C193.1,79.2 193,80.7 193,82L193,82.4L205.5,82.4C205.6,74 205.9,67.3 207.8,57.1C209.7,47 215.3,36 221,36.6C225.5,37 227,42.4 227.5,47.4L240.1,47.4C239.4,32.4 230.9,24.1 220.5,24.1Z" style="fill:white;fill-rule:nonzero;"/>
    </g>
</svg>
