<svg width="1080" height="180" xmlns="http://www.w3.org/2000/svg"><defs><linearGradient x1="95.054%" y1="100%" x2="-70.857%" y2="282.468%" id="a"><stop stop-color="#7085FE" stop-opacity="0" offset="0%"/><stop stop-color="#7085FE" offset="100%"/></linearGradient></defs><g transform="translate(-180 -4906)" stroke="url(#a)" fill="none" fill-rule="evenodd"><path d="M1117.155 4753.124c42.694 0 77.3 34.61 77.3 77.302 0 42.694-34.606 77.302-77.3 77.302-42.694 0-77.302-34.608-77.302-77.302 0-42.692 34.608-77.302 77.302-77.302z"/><path d="M1121.84 4756.43c42.694 0 77.302 34.61 77.302 77.301 0 42.694-34.608 77.302-77.302 77.302-42.692 0-77.302-34.608-77.302-77.302 0-42.692 34.61-77.302 77.302-77.302z"/><path d="M1126.524 4759.738c42.694 0 77.302 34.61 77.302 77.302 0 42.692-34.608 77.302-77.302 77.302-42.692 0-77.302-34.61-77.302-77.302 0-42.692 34.61-77.302 77.302-77.302z"/><path d="M1131.211 4763.043c42.692 0 77.3 34.61 77.3 77.302 0 42.694-34.608 77.302-77.3 77.302-42.694 0-77.302-34.608-77.302-77.302 0-42.692 34.608-77.302 77.302-77.302z"/><path d="M1135.895 4766.351c42.692 0 77.3 34.61 77.3 77.302 0 42.694-34.608 77.302-77.3 77.302-42.694 0-77.302-34.608-77.302-77.302 0-42.692 34.608-77.302 77.302-77.302z"/><path d="M1140.58 4769.658c42.695 0 77.303 34.61 77.303 77.302 0 42.692-34.608 77.302-77.302 77.302-42.692 0-77.302-34.61-77.302-77.302 0-42.692 34.61-77.302 77.302-77.302z"/><path d="M1145.264 4772.965c42.694 0 77.302 34.61 77.302 77.302 0 42.694-34.608 77.302-77.302 77.302-42.694 0-77.302-34.608-77.302-77.302 0-42.692 34.608-77.302 77.302-77.302z"/><path d="M1149.95 4776.274c42.694 0 77.302 34.608 77.302 77.302 0 42.692-34.608 77.302-77.302 77.302-42.692 0-77.3-34.61-77.3-77.302 0-42.694 34.608-77.302 77.3-77.302z"/><path d="M1154.635 4779.58c42.692 0 77.3 34.61 77.3 77.302 0 42.694-34.608 77.302-77.3 77.302-42.694 0-77.302-34.608-77.302-77.302 0-42.692 34.608-77.302 77.302-77.302z"/><path d="M1159.32 4782.887c42.695 0 77.3 34.61 77.3 77.302 0 42.694-34.605 77.302-77.3 77.302-42.693 0-77.301-34.608-77.301-77.302 0-42.692 34.608-77.302 77.302-77.302z"/><path d="M1164.004 4786.194c42.694 0 77.302 34.61 77.302 77.302 0 42.692-34.608 77.302-77.302 77.302-42.694 0-77.302-34.61-77.302-77.302 0-42.692 34.608-77.302 77.302-77.302z"/><path d="M1168.69 4789.501c42.694 0 77.302 34.61 77.302 77.302 0 42.694-34.608 77.302-77.302 77.302-42.692 0-77.302-34.608-77.302-77.302 0-42.692 34.61-77.302 77.302-77.302z"/><path d="M1173.374 4792.807c42.694 0 77.302 34.61 77.302 77.302 0 42.694-34.608 77.302-77.302 77.302-42.692 0-77.3-34.608-77.3-77.302 0-42.692 34.608-77.302 77.3-77.302z"/><path d="M1178.059 4796.116c42.692 0 77.3 34.61 77.3 77.302 0 42.692-34.608 77.302-77.3 77.302-42.694 0-77.302-34.61-77.302-77.302 0-42.692 34.608-77.302 77.302-77.302z"/><path d="M1182.745 4799.421c42.694 0 77.302 34.61 77.302 77.302 0 42.694-34.608 77.302-77.302 77.302-42.694 0-77.302-34.608-77.302-77.302 0-42.692 34.608-77.302 77.302-77.302z"/><path d="M1187.428 4802.73c42.694 0 77.302 34.608 77.302 77.302 0 42.692-34.608 77.302-77.302 77.302-42.694 0-77.3-34.61-77.3-77.302 0-42.694 34.606-77.302 77.3-77.302z"/><path d="M1192.114 4806.036c42.694 0 77.302 34.61 77.302 77.302 0 42.692-34.608 77.302-77.302 77.302-42.692 0-77.3-34.61-77.3-77.302 0-42.692 34.608-77.302 77.3-77.302z"/><path d="M1196.8 4809.343c42.691 0 77.3 34.61 77.3 77.302 0 42.694-34.609 77.302-77.3 77.302-42.695 0-77.303-34.608-77.303-77.302 0-42.692 34.608-77.302 77.302-77.302z"/><path d="M1201.485 4812.65c42.692 0 77.3 34.61 77.3 77.302 0 42.692-34.608 77.302-77.3 77.302-42.694 0-77.302-34.61-77.302-77.302 0-42.692 34.608-77.302 77.302-77.302z"/><path d="M1206.168 4815.958c42.694 0 77.302 34.61 77.302 77.302 0 42.694-34.608 77.302-77.302 77.302-42.694 0-77.302-34.608-77.302-77.302 0-42.692 34.608-77.302 77.302-77.302z"/><path d="M1210.854 4819.263c42.694 0 77.302 34.61 77.302 77.302 0 42.694-34.608 77.302-77.302 77.302-42.692 0-77.3-34.608-77.3-77.302 0-42.692 34.608-77.302 77.3-77.302z"/><path d="M1215.538 4822.572c42.694 0 77.302 34.61 77.302 77.302 0 42.692-34.608 77.302-77.302 77.302-42.692 0-77.3-34.61-77.3-77.302 0-42.692 34.608-77.302 77.3-77.302z"/><path d="M1220.225 4825.877c42.692 0 77.3 34.61 77.3 77.302 0 42.694-34.608 77.302-77.3 77.302-42.694 0-77.302-34.608-77.302-77.302 0-42.692 34.608-77.302 77.302-77.302z"/><path d="M1224.909 4829.185c42.694 0 77.302 34.61 77.302 77.302 0 42.694-34.608 77.302-77.302 77.302-42.694 0-77.302-34.608-77.302-77.302 0-42.692 34.608-77.302 77.302-77.302z"/><path d="M1229.594 4832.492c42.694 0 77.302 34.61 77.302 77.302 0 42.692-34.608 77.302-77.302 77.302-42.694 0-77.3-34.61-77.3-77.302 0-42.692 34.606-77.302 77.3-77.302z"/><path d="M1234.278 4835.8c42.694 0 77.302 34.61 77.302 77.301 0 42.694-34.608 77.302-77.302 77.302-42.692 0-77.3-34.608-77.3-77.302 0-42.692 34.608-77.302 77.3-77.302z"/><path d="M1238.963 4839.106c42.692 0 77.3 34.608 77.3 77.302 0 42.692-34.608 77.302-77.3 77.302-42.694 0-77.302-34.61-77.302-77.302 0-42.694 34.608-77.302 77.302-77.302z"/><path d="M1243.649 4842.414c42.692 0 77.3 34.61 77.3 77.302 0 42.694-34.608 77.302-77.3 77.302-42.694 0-77.302-34.608-77.302-77.302 0-42.692 34.608-77.302 77.302-77.302z"/><path d="M1248.333 4845.72c42.694 0 77.302 34.61 77.302 77.301 0 42.694-34.608 77.302-77.302 77.302-42.694 0-77.302-34.608-77.302-77.302 0-42.692 34.608-77.302 77.302-77.302z"/><path d="M1253.018 4849.028c42.694 0 77.302 34.61 77.302 77.302 0 42.692-34.608 77.302-77.302 77.302-42.692 0-77.3-34.61-77.3-77.302 0-42.692 34.608-77.302 77.3-77.302z"/><path d="M1257.702 4852.334c42.694 0 77.302 34.61 77.302 77.302 0 42.694-34.608 77.302-77.302 77.302-42.692 0-77.3-34.608-77.3-77.302 0-42.692 34.608-77.302 77.3-77.302z"/><path d="M1262.39 4855.641c42.691 0 77.3 34.61 77.3 77.302 0 42.694-34.609 77.302-77.3 77.302-42.695 0-77.303-34.608-77.303-77.302 0-42.692 34.608-77.302 77.302-77.302z"/><path d="M1267.073 4858.948c42.694 0 77.3 34.61 77.3 77.302 0 42.692-34.606 77.302-77.3 77.302-42.694 0-77.302-34.61-77.302-77.302 0-42.692 34.608-77.302 77.302-77.302z"/><path d="M1271.758 4862.255c42.694 0 77.302 34.61 77.302 77.302 0 42.694-34.608 77.302-77.302 77.302-42.694 0-77.302-34.608-77.302-77.302 0-42.692 34.608-77.302 77.302-77.302z"/><path d="M1276.442 4865.561c42.694 0 77.302 34.61 77.302 77.302 0 42.694-34.608 77.302-77.302 77.302-42.692 0-77.3-34.608-77.3-77.302 0-42.692 34.608-77.302 77.3-77.302z"/><path d="M1281.13 4868.87c42.691 0 77.3 34.61 77.3 77.302 0 42.692-34.609 77.302-77.3 77.302-42.695 0-77.303-34.61-77.303-77.302 0-42.692 34.608-77.302 77.302-77.302z"/><path d="M1274.018 4870.963c42.694 0 77.302 34.61 77.302 77.302 0 42.694-34.608 77.302-77.302 77.302-42.692 0-77.3-34.608-77.3-77.302 0-42.692 34.608-77.302 77.3-77.302z"/><path d="M1266.909 4873.057c42.694 0 77.302 34.61 77.302 77.302 0 42.694-34.608 77.302-77.302 77.302-42.694 0-77.302-34.608-77.302-77.302 0-42.692 34.608-77.302 77.302-77.302z"/><path d="M1259.8 4875.152c42.691 0 77.3 34.61 77.3 77.302 0 42.692-34.609 77.302-77.3 77.302-42.695 0-77.303-34.61-77.303-77.302 0-42.692 34.608-77.302 77.302-77.302z"/><path d="M1252.688 4877.248c42.694 0 77.302 34.61 77.302 77.302 0 42.694-34.608 77.302-77.302 77.302-42.692 0-77.3-34.608-77.3-77.302 0-42.692 34.608-77.302 77.3-77.302z"/><path d="M1245.577 4879.341c42.694 0 77.302 34.61 77.302 77.302 0 42.692-34.608 77.302-77.302 77.302-42.694 0-77.302-34.61-77.302-77.302 0-42.692 34.608-77.302 77.302-77.302z"/><path d="M1238.467 4881.435c42.692 0 77.3 34.61 77.3 77.302 0 42.694-34.608 77.302-77.3 77.302-42.694 0-77.302-34.608-77.302-77.302 0-42.692 34.608-77.302 77.302-77.302z"/><path d="M1231.356 4883.53c42.694 0 77.302 34.61 77.302 77.302 0 42.694-34.608 77.302-77.302 77.302-42.692 0-77.3-34.608-77.3-77.302 0-42.692 34.608-77.302 77.3-77.302z"/><path d="M1224.247 4885.624c42.694 0 77.302 34.61 77.302 77.302 0 42.694-34.608 77.302-77.302 77.302-42.694 0-77.302-34.608-77.302-77.302 0-42.692 34.608-77.302 77.302-77.302z"/><path d="M1217.137 4887.72c42.692 0 77.3 34.61 77.3 77.301 0 42.694-34.608 77.302-77.3 77.302-42.694 0-77.302-34.608-77.302-77.302 0-42.692 34.608-77.302 77.302-77.302z"/><path d="M1210.026 4889.814c42.694 0 77.302 34.608 77.302 77.302 0 42.692-34.608 77.302-77.302 77.302-42.692 0-77.3-34.61-77.3-77.302 0-42.694 34.608-77.302 77.3-77.302z"/><path d="M1202.917 4891.908c42.694 0 77.302 34.61 77.302 77.302 0 42.692-34.608 77.302-77.302 77.302-42.694 0-77.302-34.61-77.302-77.302 0-42.692 34.608-77.302 77.302-77.302z"/><path d="M1195.807 4894.001c42.692 0 77.3 34.61 77.3 77.302 0 42.692-34.608 77.302-77.3 77.302-42.694 0-77.302-34.61-77.302-77.302 0-42.692 34.608-77.302 77.302-77.302z"/><path d="M1188.696 4896.095c42.694 0 77.302 34.61 77.302 77.302 0 42.692-34.608 77.302-77.302 77.302-42.692 0-77.3-34.61-77.3-77.302 0-42.692 34.608-77.302 77.3-77.302z"/><path d="M1181.586 4898.192c42.694 0 77.302 34.608 77.302 77.302 0 42.694-34.608 77.302-77.302 77.302-42.694 0-77.302-34.608-77.302-77.302 0-42.694 34.608-77.302 77.302-77.302z"/><path d="M1174.477 4900.286c42.692 0 77.3 34.61 77.3 77.302 0 42.694-34.608 77.302-77.3 77.302-42.694 0-77.302-34.608-77.302-77.302 0-42.692 34.608-77.302 77.302-77.302z"/><path d="M1167.366 4902.38c42.694 0 77.302 34.61 77.302 77.301 0 42.694-34.608 77.302-77.302 77.302-42.692 0-77.3-34.608-77.3-77.302 0-42.692 34.608-77.302 77.3-77.302z"/><path d="M1160.256 4904.473c42.694 0 77.302 34.61 77.302 77.302 0 42.694-34.608 77.302-77.302 77.302-42.694 0-77.302-34.608-77.302-77.302 0-42.692 34.608-77.302 77.302-77.302z"/><path d="M1153.147 4906.57c42.692 0 77.3 34.61 77.3 77.302 0 42.692-34.608 77.302-77.3 77.302-42.694 0-77.302-34.61-77.302-77.302 0-42.692 34.608-77.302 77.302-77.302z"/><path d="M1146.036 4908.664c42.694 0 77.302 34.61 77.302 77.302 0 42.692-34.608 77.302-77.302 77.302-42.692 0-77.3-34.61-77.3-77.302 0-42.692 34.608-77.302 77.3-77.302z"/><path d="M1138.926 4910.757c42.694 0 77.302 34.61 77.302 77.302 0 42.692-34.608 77.302-77.302 77.302-42.692 0-77.302-34.61-77.302-77.302 0-42.692 34.61-77.302 77.302-77.302z"/><path d="M1131.817 4912.851c42.692 0 77.3 34.61 77.3 77.302 0 42.694-34.608 77.302-77.3 77.302-42.694 0-77.302-34.608-77.302-77.302 0-42.692 34.608-77.302 77.302-77.302z"/><path d="M1124.706 4914.946c42.694 0 77.302 34.61 77.302 77.302 0 42.694-34.608 77.302-77.302 77.302-42.692 0-77.3-34.608-77.3-77.302 0-42.692 34.608-77.302 77.3-77.302z"/><path d="M1117.596 4917.042c42.694 0 77.302 34.61 77.302 77.302 0 42.694-34.608 77.302-77.302 77.302-42.692 0-77.302-34.608-77.302-77.302 0-42.692 34.61-77.302 77.302-77.302z"/><path d="M1110.487 4919.135c42.694 0 77.3 34.61 77.3 77.302 0 42.694-34.606 77.302-77.3 77.302-42.694 0-77.302-34.608-77.302-77.302 0-42.692 34.608-77.302 77.302-77.302z"/><path d="M1103.377 4921.23c42.692 0 77.3 34.608 77.3 77.3 0 42.694-34.608 77.304-77.3 77.304-42.694 0-77.302-34.61-77.302-77.304 0-42.692 34.608-77.3 77.302-77.3z"/><path d="M1096.266 4923.324c42.694 0 77.302 34.61 77.302 77.302 0 42.692-34.608 77.302-77.302 77.302-42.692 0-77.302-34.61-77.302-77.302 0-42.692 34.61-77.302 77.302-77.302z"/><path d="M1089.157 4925.42c42.694 0 77.3 34.61 77.3 77.301 0 42.692-34.606 77.302-77.3 77.302-42.694 0-77.302-34.61-77.302-77.302 0-42.692 34.608-77.302 77.302-77.302z"/><path d="M1082.046 4927.513c42.692 0 77.302 34.61 77.302 77.302 0 42.692-34.61 77.302-77.302 77.302-42.692 0-77.302-34.61-77.302-77.302 0-42.692 34.61-77.302 77.302-77.302z"/><path d="M1074.936 4929.608c42.694 0 77.302 34.608 77.302 77.302 0 42.694-34.608 77.302-77.302 77.302-42.692 0-77.302-34.608-77.302-77.302 0-42.694 34.61-77.302 77.302-77.302z"/><path d="M1067.827 4931.702c42.694 0 77.302 34.61 77.302 77.302 0 42.694-34.608 77.302-77.302 77.302-42.694 0-77.302-34.608-77.302-77.302 0-42.692 34.608-77.302 77.302-77.302z"/><path d="M1060.716 4933.795c42.692 0 77.302 34.61 77.302 77.302 0 42.694-34.61 77.302-77.302 77.302-42.692 0-77.302-34.608-77.302-77.302 0-42.692 34.61-77.302 77.302-77.302z"/><path d="M1053.607 4935.891c42.692 0 77.302 34.61 77.302 77.302 0 42.694-34.61 77.302-77.302 77.302-42.694 0-77.302-34.608-77.302-77.302 0-42.692 34.608-77.302 77.302-77.302z"/><path d="M1046.497 4937.986c42.692 0 77.302 34.61 77.302 77.3 0 42.694-34.61 77.304-77.302 77.304-42.692 0-77.302-34.61-77.302-77.304 0-42.69 34.61-77.3 77.302-77.3z"/><path d="M1039.384 4940.08c42.694 0 77.302 34.61 77.302 77.302 0 42.692-34.608 77.302-77.302 77.302-42.692 0-77.302-34.61-77.302-77.302 0-42.692 34.61-77.302 77.302-77.302z"/><path d="M1032.275 4942.173c42.692 0 77.302 34.61 77.302 77.302 0 42.692-34.61 77.302-77.302 77.302-42.694 0-77.302-34.61-77.302-77.302 0-42.692 34.608-77.302 77.302-77.302z"/><path d="M1025.165 4944.269c42.692 0 77.302 34.61 77.302 77.302 0 42.694-34.61 77.302-77.302 77.302-42.692 0-77.302-34.608-77.302-77.302 0-42.692 34.61-77.302 77.302-77.302z"/><path d="M1018.054 4946.364c42.694 0 77.302 34.61 77.302 77.302 0 42.694-34.608 77.302-77.302 77.302-42.692 0-77.302-34.608-77.302-77.302 0-42.692 34.61-77.302 77.302-77.302z"/><path d="M1010.945 4948.458c42.692 0 77.302 34.61 77.302 77.302 0 42.694-34.61 77.302-77.302 77.302-42.694 0-77.302-34.608-77.302-77.302 0-42.692 34.608-77.302 77.302-77.302z"/><path d="M1003.835 4950.551c42.692 0 77.302 34.61 77.302 77.302 0 42.694-34.61 77.302-77.302 77.302-42.692 0-77.302-34.608-77.302-77.302 0-42.692 34.61-77.302 77.302-77.302z"/><path d="M996.724 4952.646c42.694 0 77.302 34.608 77.302 77.3 0 42.694-34.608 77.304-77.302 77.304-42.692 0-77.302-34.61-77.302-77.304 0-42.692 34.61-77.3 77.302-77.3z"/><path d="M989.615 4954.742c42.692 0 77.302 34.61 77.302 77.302 0 42.692-34.61 77.302-77.302 77.302-42.694 0-77.302-34.61-77.302-77.302 0-42.692 34.608-77.302 77.302-77.302z"/><path d="M982.504 4956.835c42.692 0 77.302 34.61 77.302 77.302 0 42.692-34.61 77.302-77.302 77.302-42.692 0-77.302-34.61-77.302-77.302 0-42.692 34.61-77.302 77.302-77.302z"/><path d="M975.394 4958.93c42.694 0 77.302 34.61 77.302 77.301 0 42.692-34.608 77.302-77.302 77.302-42.692 0-77.302-34.61-77.302-77.302 0-42.692 34.61-77.302 77.302-77.302z"/><path d="M968.285 4961.024c42.692 0 77.302 34.608 77.302 77.302 0 42.694-34.61 77.302-77.302 77.302-42.694 0-77.302-34.608-77.302-77.302 0-42.694 34.608-77.302 77.302-77.302z"/><path d="M961.174 4963.12c42.694 0 77.302 34.61 77.302 77.302 0 42.694-34.608 77.302-77.302 77.302-42.692 0-77.302-34.608-77.302-77.302 0-42.692 34.61-77.302 77.302-77.302z"/><path d="M954.065 4965.213c42.692 0 77.302 34.61 77.302 77.302 0 42.694-34.61 77.302-77.302 77.302-42.694 0-77.302-34.608-77.302-77.302 0-42.692 34.608-77.302 77.302-77.302z"/><path d="M946.955 4967.307c42.692 0 77.302 34.61 77.302 77.302 0 42.694-34.61 77.302-77.302 77.302-42.692 0-77.302-34.608-77.302-77.302 0-42.692 34.61-77.302 77.302-77.302z"/><path d="M939.844 4969.402c42.694 0 77.302 34.61 77.302 77.3 0 42.694-34.608 77.304-77.302 77.304-42.692 0-77.302-34.61-77.302-77.304 0-42.69 34.61-77.3 77.302-77.3z"/><path d="M932.735 4971.496c42.692 0 77.302 34.61 77.302 77.302 0 42.692-34.61 77.302-77.302 77.302-42.694 0-77.302-34.61-77.302-77.302 0-42.692 34.608-77.302 77.302-77.302z"/><path d="M925.625 4973.591c42.692 0 77.302 34.61 77.302 77.302 0 42.692-34.61 77.302-77.302 77.302-42.692 0-77.302-34.61-77.302-77.302 0-42.692 34.61-77.302 77.302-77.302z"/><path d="M918.514 4975.685c42.694 0 77.302 34.61 77.302 77.302 0 42.694-34.608 77.302-77.302 77.302-42.692 0-77.302-34.608-77.302-77.302 0-42.692 34.61-77.302 77.302-77.302z"/><path d="M923.359 4978.866c42.692 0 77.302 34.608 77.302 77.302 0 42.694-34.61 77.302-77.302 77.302-42.694 0-77.302-34.608-77.302-77.302 0-42.694 34.608-77.302 77.302-77.302z"/><path d="M928.205 4982.045c42.692 0 77.302 34.61 77.302 77.302 0 42.694-34.61 77.302-77.302 77.302-42.692 0-77.302-34.608-77.302-77.302 0-42.692 34.61-77.302 77.302-77.302z"/><path d="M933.05 4985.225c42.694 0 77.302 34.61 77.302 77.302 0 42.694-34.608 77.302-77.302 77.302-42.692 0-77.302-34.608-77.302-77.302 0-42.692 34.61-77.302 77.302-77.302z"/><path d="M937.894 4988.408c42.694 0 77.302 34.61 77.302 77.302 0 42.692-34.608 77.302-77.302 77.302-42.692 0-77.302-34.61-77.302-77.302 0-42.692 34.61-77.302 77.302-77.302z"/><path d="M942.74 4991.587c42.693 0 77.303 34.61 77.303 77.302 0 42.692-34.61 77.302-77.302 77.302-42.694 0-77.302-34.61-77.302-77.302 0-42.692 34.608-77.302 77.302-77.302z"/><path d="M947.585 4994.767c42.692 0 77.302 34.61 77.302 77.302 0 42.694-34.61 77.302-77.302 77.302-42.692 0-77.302-34.608-77.302-77.302 0-42.692 34.61-77.302 77.302-77.302z"/><path d="M952.43 4997.948c42.694 0 77.302 34.608 77.302 77.302 0 42.694-34.608 77.302-77.302 77.302-42.692 0-77.302-34.608-77.302-77.302 0-42.694 34.61-77.302 77.302-77.302z"/><path d="M957.275 5001.128c42.692 0 77.302 34.608 77.302 77.3 0 42.694-34.61 77.304-77.302 77.304-42.694 0-77.302-34.61-77.302-77.304 0-42.692 34.608-77.3 77.302-77.3z"/><path d="M962.12 5004.31c42.693 0 77.303 34.61 77.303 77.3 0 42.694-34.61 77.304-77.302 77.304-42.692 0-77.302-34.61-77.302-77.304 0-42.69 34.61-77.3 77.302-77.3z"/><path d="M966.964 5007.49c42.692 0 77.302 34.61 77.302 77.302 0 42.692-34.61 77.302-77.302 77.302-42.692 0-77.302-34.61-77.302-77.302 0-42.692 34.61-77.302 77.302-77.302z"/><path d="M971.81 5010.67c42.694 0 77.302 34.61 77.302 77.301 0 42.692-34.608 77.302-77.302 77.302-42.692 0-77.302-34.61-77.302-77.302 0-42.692 34.61-77.302 77.302-77.302z"/><path d="M976.657 5013.85c42.692 0 77.302 34.61 77.302 77.301 0 42.692-34.61 77.302-77.302 77.302-42.694 0-77.302-34.61-77.302-77.302 0-42.692 34.608-77.302 77.302-77.302z"/><path d="M981.5 5017.03c42.693 0 77.303 34.61 77.303 77.303 0 42.694-34.61 77.304-77.302 77.304-42.692 0-77.302-34.61-77.302-77.304 0-42.692 34.61-77.302 77.302-77.302z"/><path d="M986.346 5020.212c42.694 0 77.302 34.608 77.302 77.3 0 42.694-34.608 77.304-77.302 77.304-42.692 0-77.302-34.61-77.302-77.304 0-42.692 34.61-77.3 77.302-77.3z"/><path d="M991.191 5023.392c42.692 0 77.302 34.61 77.302 77.3 0 42.694-34.61 77.304-77.302 77.304-42.694 0-77.302-34.61-77.302-77.304 0-42.69 34.608-77.3 77.302-77.3z"/><path d="M996.037 5026.572c42.692 0 77.302 34.61 77.302 77.3 0 42.694-34.61 77.304-77.302 77.304-42.692 0-77.302-34.61-77.302-77.304 0-42.69 34.61-77.3 77.302-77.3z"/><path d="M1000.88 5029.751c42.692 0 77.302 34.61 77.302 77.302 0 42.692-34.61 77.302-77.302 77.302-42.692 0-77.302-34.61-77.302-77.302 0-42.692 34.61-77.302 77.302-77.302z"/><path d="M1005.726 5032.933c42.694 0 77.302 34.61 77.302 77.302 0 42.694-34.608 77.302-77.302 77.302-42.692 0-77.302-34.608-77.302-77.302 0-42.692 34.61-77.302 77.302-77.302z"/><path d="M1010.57 5036.113c42.693 0 77.303 34.61 77.303 77.302 0 42.694-34.61 77.304-77.302 77.304-42.694 0-77.302-34.61-77.302-77.304 0-42.692 34.608-77.302 77.302-77.302z"/><path d="M1015.417 5039.294c42.692 0 77.302 34.608 77.302 77.3 0 42.694-34.61 77.304-77.302 77.304-42.692 0-77.302-34.61-77.302-77.304 0-42.692 34.61-77.3 77.302-77.3z"/><path d="M1020.262 5042.474c42.694 0 77.302 34.61 77.302 77.3 0 42.694-34.608 77.304-77.302 77.304-42.692 0-77.302-34.61-77.302-77.304 0-42.69 34.61-77.3 77.302-77.3z"/><path d="M1025.107 5045.654c42.692 0 77.302 34.61 77.302 77.3 0 42.694-34.61 77.304-77.302 77.304-42.694 0-77.302-34.61-77.302-77.304 0-42.69 34.608-77.3 77.302-77.3z"/><path d="M1029.953 5048.835c42.692 0 77.302 34.61 77.302 77.302 0 42.692-34.61 77.302-77.302 77.302-42.692 0-77.302-34.61-77.302-77.302 0-42.692 34.61-77.302 77.302-77.302z"/><path d="M1034.796 5052.015c42.692 0 77.302 34.61 77.302 77.302 0 42.692-34.61 77.302-77.302 77.302-42.692 0-77.302-34.61-77.302-77.302 0-42.692 34.61-77.302 77.302-77.302z"/><path d="M1039.642 5055.195c42.694 0 77.302 34.61 77.302 77.302 0 42.694-34.608 77.304-77.302 77.304-42.692 0-77.302-34.61-77.302-77.304 0-42.692 34.61-77.302 77.302-77.302z"/><path d="M1044.487 5058.376c42.692 0 77.3 34.608 77.3 77.3 0 42.694-34.608 77.304-77.3 77.304-42.694 0-77.302-34.61-77.302-77.304 0-42.692 34.608-77.3 77.302-77.3z"/><path d="M1049.333 5061.556c42.692 0 77.302 34.61 77.302 77.3 0 42.694-34.61 77.304-77.302 77.304-42.692 0-77.302-34.61-77.302-77.304 0-42.69 34.61-77.3 77.302-77.3z"/><path d="M1054.176 5064.738c42.694 0 77.302 34.61 77.302 77.3 0 42.694-34.608 77.304-77.302 77.304-42.692 0-77.302-34.61-77.302-77.304 0-42.69 34.61-77.3 77.302-77.3z"/><path d="M1059.023 5067.917c42.692 0 77.302 34.61 77.302 77.302 0 42.692-34.61 77.302-77.302 77.302-42.694 0-77.302-34.61-77.302-77.302 0-42.692 34.608-77.302 77.302-77.302z"/><path d="M1063.869 5071.097c42.692 0 77.302 34.61 77.302 77.302 0 42.692-34.61 77.302-77.302 77.302-42.694 0-77.302-34.61-77.302-77.302 0-42.692 34.608-77.302 77.302-77.302z"/><path d="M1068.712 5074.277c42.692 0 77.302 34.61 77.302 77.302 0 42.694-34.61 77.304-77.302 77.304-42.692 0-77.302-34.61-77.302-77.304 0-42.692 34.61-77.302 77.302-77.302z"/><path d="M1073.558 5077.457c42.692 0 77.302 34.61 77.302 77.302 0 42.694-34.61 77.304-77.302 77.304-42.692 0-77.302-34.61-77.302-77.304 0-42.692 34.61-77.302 77.302-77.302z"/><path d="M1078.403 5080.64c42.692 0 77.3 34.61 77.3 77.3 0 42.694-34.608 77.304-77.3 77.304-42.694 0-77.302-34.61-77.302-77.304 0-42.69 34.608-77.3 77.302-77.3z"/><path d="M1083.249 5083.82c42.694 0 77.302 34.61 77.302 77.3 0 42.694-34.608 77.304-77.302 77.304-42.692 0-77.302-34.61-77.302-77.304 0-42.69 34.61-77.3 77.302-77.3z"/></g></svg>