<svg xmlns="http://www.w3.org/2000/svg" width="18" height="14.628" viewBox="0 0 18 14.628">
  <path id="Icon_metro-twitter" data-name="Icon metro-twitter" d="M20.571,6.549a7.383,7.383,0,0,1-2.121.581,3.7,3.7,0,0,0,1.624-2.043,7.393,7.393,0,0,1-2.345.9,3.7,3.7,0,0,0-6.293,3.368A10.484,10.484,0,0,1,3.824,5.493a3.7,3.7,0,0,0,1.143,4.93,3.678,3.678,0,0,1-1.673-.462c0,.015,0,.031,0,.046a3.7,3.7,0,0,0,2.962,3.621,3.7,3.7,0,0,1-1.668.063,3.7,3.7,0,0,0,3.45,2.565,7.409,7.409,0,0,1-4.586,1.581,7.49,7.49,0,0,1-.881-.052A10.5,10.5,0,0,0,18.738,8.938q0-.24-.011-.478a7.5,7.5,0,0,0,1.843-1.912Z" transform="translate(-2.571 -4.817)" fill="#00acee"/>
</svg>
