<svg xmlns="http://www.w3.org/2000/svg" width="14.875" height="17" viewBox="0 0 14.875 17">
  <path id="Icon_awesome-discord" data-name="Icon awesome-discord" d="M9.869,8.075A.87.87,0,1,1,9,7.132.906.906,0,0,1,9.869,8.075ZM5.9,7.132a.947.947,0,0,0,0,1.887.906.906,0,0,0,.867-.943A.9.9,0,0,0,5.9,7.132Zm8.976-5.381V17c-2.141-1.892-1.457-1.266-3.944-3.578l.45,1.573H1.743A1.747,1.747,0,0,1,0,13.243V1.751A1.747,1.747,0,0,1,1.743,0h11.39A1.747,1.747,0,0,1,14.875,1.751ZM12.453,9.809a11.383,11.383,0,0,0-1.224-4.956A4.2,4.2,0,0,0,8.84,3.961L8.721,4.1a5.657,5.657,0,0,1,2.117,1.08,7.222,7.222,0,0,0-6.35-.247c-.314.144-.5.247-.5.247A5.734,5.734,0,0,1,6.222,4.063l-.085-.1a4.2,4.2,0,0,0-2.389.893A11.383,11.383,0,0,0,2.524,9.809,3.082,3.082,0,0,0,5.117,11.1s.315-.382.57-.705a2.644,2.644,0,0,1-1.488-1c.125.088.331.2.348.212a6.2,6.2,0,0,0,5.3.3,4.864,4.864,0,0,0,.977-.5,2.682,2.682,0,0,1-1.538,1.012c.255.323.561.688.561.688A3.107,3.107,0,0,0,12.453,9.809Z" fill="#3320f8"/>
</svg>
