<?xml version="1.0" encoding="UTF-8" standalone="no"?>
<!DOCTYPE svg PUBLIC "-//W3C//DTD SVG 1.1//EN" "http://www.w3.org/Graphics/SVG/1.1/DTD/svg11.dtd">
<svg width="100%" height="100%" viewBox="0 0 313 312" version="1.1" xmlns="http://www.w3.org/2000/svg" xmlns:xlink="http://www.w3.org/1999/xlink" xml:space="preserve" xmlns:serif="http://www.serif.com/" style="fill-rule:evenodd;clip-rule:evenodd;stroke-linejoin:round;stroke-miterlimit:2;">
    <g transform="matrix(1,0,0,1,1.42109e-14,-0.546437)">
        <g>
            <g>
                <path d="M305.6,178.053C302.4,177.253 299.2,178.053 296.4,180.053C286,188.853 274,196.053 260.8,200.853C248.4,205.653 234.8,208.053 220.4,208.053C188,208.053 158.4,194.853 137.2,173.653C116,152.453 102.8,122.853 102.8,90.453C102.8,76.853 105.2,63.653 109.2,51.653C113.6,38.853 120,27.253 128.4,17.253C132,12.853 131.2,6.453 126.8,2.853C124,0.853 120.8,0.053 117.6,0.853C83.6,10.053 54,30.453 32.8,57.653C12.4,84.453 -0,117.653 -0,154.053C-0,197.653 17.6,237.253 46.4,266.053C75.2,294.853 114.8,312.453 158.4,312.453C195.2,312.453 229.2,299.653 256.4,278.453C284,256.853 304,226.053 312.4,190.853C314.4,184.853 311.2,179.253 305.6,178.053ZM244.4,261.653C221.2,280.053 191.6,291.253 159.2,291.253C121.2,291.253 86.8,275.653 62,250.853C37.2,226.053 21.6,191.653 21.6,153.653C21.6,122.053 32,93.253 50,70.053C62.4,54.053 78,40.853 96,31.653C94,36.053 92,40.453 90.4,45.253C85.2,59.653 82.8,74.853 82.8,90.853C82.8,128.853 98.4,163.653 123.2,188.453C148,213.253 182.8,228.853 220.8,228.853C237.6,228.853 253.6,226.053 268.4,220.453C273.6,218.453 278.8,216.453 283.6,214.053C274,232.453 260.8,248.853 244.4,261.653Z" style="fill:white;fill-rule:nonzero;"/>
            </g>
        </g>
    </g>
</svg>
