<svg xmlns="http://www.w3.org/2000/svg" width="30.849" height="24.41" viewBox="0 0 30.849 24.41">
  <path id="Icon_metro-medium" data-name="Icon metro-medium" d="M33.419,25.133v3.6H22.367v-3.6h2.307V9.193h-.1L19.166,28.731H14.982L9.646,9.193H9.508V25.133h2.324v3.6H2.571v-3.6H3.759A1.134,1.134,0,0,0,4.5,24.8a.916.916,0,0,0,.379-.646V8.986A1.048,1.048,0,0,0,4.5,8.3a1.078,1.078,0,0,0-.74-.379H2.571v-3.6H14.139l3.8,14.133h.1L21.885,4.321H33.419v3.6H32.2a1.057,1.057,0,0,0-.706.379,1.048,1.048,0,0,0-.379.689V24.152a.921.921,0,0,0,.37.646,1.089,1.089,0,0,0,.714.336Z" transform="translate(-2.571 -4.321)"/>
</svg>
