<svg xmlns="http://www.w3.org/2000/svg" width="12.75" height="17" viewBox="0 0 12.75 17">
  <path id="Icon_awesome-award" data-name="Icon awesome-award" d="M3.225,12.04c-.289-.289-.138-.207-.834-.393a2.4,2.4,0,0,1-.844-.442L.04,14.9a.531.531,0,0,0,.512.731L2.3,15.562l1.2,1.271a.531.531,0,0,0,.878-.165l1.728-4.237a2.383,2.383,0,0,1-2.886-.391ZM12.71,14.9,11.2,11.2a2.39,2.39,0,0,1-.844.442c-.7.187-.546.106-.834.393a2.383,2.383,0,0,1-2.886.391l1.728,4.237a.531.531,0,0,0,.878.165l1.2-1.271,1.749.067a.531.531,0,0,0,.512-.731ZM8.732,11.289c.507-.516.565-.472,1.288-.669a1.349,1.349,0,0,0,.945-.962,2.134,2.134,0,0,1,.862-1.519,1.377,1.377,0,0,0,.346-1.314,2.159,2.159,0,0,1,0-1.754,1.377,1.377,0,0,0-.346-1.314,2.134,2.134,0,0,1-.862-1.519,1.349,1.349,0,0,0-.945-.962A2.081,2.081,0,0,1,8.528.4,1.321,1.321,0,0,0,7.236.046a2.055,2.055,0,0,1-1.723,0A1.32,1.32,0,0,0,4.222.4a2.08,2.08,0,0,1-1.492.877,1.349,1.349,0,0,0-.945.962A2.133,2.133,0,0,1,.923,3.756,1.377,1.377,0,0,0,.577,5.07a2.158,2.158,0,0,1,0,1.754A1.378,1.378,0,0,0,.923,8.139a2.134,2.134,0,0,1,.862,1.519,1.349,1.349,0,0,0,.945.962c.743.2.8.171,1.288.669a1.32,1.32,0,0,0,1.651.193,1.317,1.317,0,0,1,1.412,0A1.319,1.319,0,0,0,8.732,11.289ZM3.242,5.842A3.133,3.133,0,1,1,6.375,9.03,3.161,3.161,0,0,1,3.242,5.842Z" transform="translate(0 0.001)" fill="#3320f8"/>
</svg>
