<?xml version="1.0" encoding="UTF-8" standalone="no"?>
<!DOCTYPE svg PUBLIC "-//W3C//DTD SVG 1.1//EN" "http://www.w3.org/Graphics/SVG/1.1/DTD/svg11.dtd">
<svg width="100%" height="100%" viewBox="0 0 256 256" version="1.1" xmlns="http://www.w3.org/2000/svg" xmlns:xlink="http://www.w3.org/1999/xlink" xml:space="preserve" xmlns:serif="http://www.serif.com/" style="fill-rule:evenodd;clip-rule:evenodd;stroke-linejoin:round;stroke-miterlimit:2;">
    <g transform="matrix(1.62025,0,0,1.62025,-27.5443,-43.7468)">
        <circle cx="96" cy="106" r="79" style="fill:rgb(253,255,160);"/>
    </g>
    <g transform="matrix(2.14926,0,0,2.14926,46.1488,31.3908)">
        <path d="M46.4,24.6C45.7,24.5 45.1,24.5 44.4,24.5C39.5,24.5 34.7,26.5 30.4,30.3C28.4,32.1 26.5,34.3 24.8,36.7C24.5,27.4 24,17.5 23,7.4L10.5,7.4C13.2,35.8 12.9,60.6 12.4,82.4L12.4,82.5L24.9,82.5C25.3,60.7 30.7,46.7 38.8,39.5C41,37.6 43.1,36.7 45,36.9C54.9,38 53.3,68.8 52.6,82.5L65.1,82.5C65.6,72.4 66.2,60.1 64.8,49.5C62.8,34 56.5,25.7 46.4,24.6Z" style="fill:url(#_Linear1);fill-rule:nonzero;"/>
    </g>
    <defs>
        <linearGradient id="_Linear1" x1="0" y1="0" x2="1" y2="0" gradientUnits="userSpaceOnUse" gradientTransform="matrix(3.85052e-15,-62.8837,62.8837,3.85052e-15,38.1501,84.9116)"><stop offset="0" style="stop-color:rgb(0,0,180);stop-opacity:1"/><stop offset="0.01" style="stop-color:rgb(0,0,180);stop-opacity:1"/><stop offset="1" style="stop-color:rgb(0,0,80);stop-opacity:1"/></linearGradient>
    </defs>
</svg>
